<?xml version="1.0" encoding="UTF-8" standalone="no"?>
<svg
   xmlns:dc="http://purl.org/dc/elements/1.1/"
   xmlns:cc="http://creativecommons.org/ns#"
   xmlns:rdf="http://www.w3.org/1999/02/22-rdf-syntax-ns#"
   xmlns:svg="http://www.w3.org/2000/svg"
   xmlns="http://www.w3.org/2000/svg"
   xmlns:sodipodi="http://sodipodi.sourceforge.net/DTD/sodipodi-0.dtd"
   xmlns:inkscape="http://www.inkscape.org/namespaces/inkscape"
   data-name="Layer 1"
   viewBox="0 0 122.11606 179.88297"
   version="1.1"
   id="svg8"
   sodipodi:docname="trafico_sexual.svg"
   inkscape:version="1.0.2 (1.0.2+r75+1)"
   width="122.11606"
   height="179.88297">
  <metadata
     id="metadata14">
    <rdf:RDF>
      <cc:Work
         rdf:about="">
        <dc:format>image/svg+xml</dc:format>
        <dc:type
           rdf:resource="http://purl.org/dc/dcmitype/StillImage" />
        <dc:title></dc:title>
      </cc:Work>
    </rdf:RDF>
  </metadata>
  <defs
     id="defs12">
    <clipPath
       clipPathUnits="userSpaceOnUse"
       id="clipPath16797">
      <rect
         style="opacity:0.377;fill:#ffffff;fill-opacity:1;fill-rule:nonzero;stroke:#d29411;stroke-width:0.0782279;stroke-linecap:round;stroke-linejoin:bevel;stroke-miterlimit:4;stroke-dasharray:none;stroke-dashoffset:0;stroke-opacity:1;paint-order:stroke fill markers"
         id="rect16799"
         width="3.5993745"
         height="4.8482285"
         x="646.90082"
         y="-410.08679" />
    </clipPath>
    <clipPath
       clipPathUnits="userSpaceOnUse"
       id="clipPath13345">
      <rect
         style="opacity:1;fill:#6a6c00;fill-opacity:1;fill-rule:nonzero;stroke:none;stroke-width:0.0694698;stroke-linecap:round;stroke-linejoin:bevel;stroke-miterlimit:4;stroke-dasharray:none;stroke-dashoffset:0;stroke-opacity:1;paint-order:stroke fill markers"
         id="rect13347"
         width="19.466074"
         height="12.082369"
         x="1881.4026"
         y="-314.73566" />
    </clipPath>
    <clipPath
       clipPathUnits="userSpaceOnUse"
       id="clipPath17099">
      <circle
         style="opacity:0.377;fill:#ffffff;fill-opacity:1;fill-rule:nonzero;stroke:#d29411;stroke-width:0.1;stroke-linecap:round;stroke-linejoin:bevel;stroke-miterlimit:4;stroke-dasharray:none;stroke-dashoffset:0;stroke-opacity:1;paint-order:stroke fill markers"
         id="circle17101"
         cx="717.59802"
         cy="-423.82327"
         r="12.733821" />
    </clipPath>
    <clipPath
       clipPathUnits="userSpaceOnUse"
       id="clipPath16797-3">
      <rect
         style="opacity:0.377;fill:#ffffff;fill-opacity:1;fill-rule:nonzero;stroke:#d29411;stroke-width:0.0782279;stroke-linecap:round;stroke-linejoin:bevel;stroke-miterlimit:4;stroke-dasharray:none;stroke-dashoffset:0;stroke-opacity:1;paint-order:stroke fill markers"
         id="rect16799-6"
         width="3.5993745"
         height="4.8482285"
         x="646.90082"
         y="-410.08679" />
    </clipPath>
    <clipPath
       clipPathUnits="userSpaceOnUse"
       id="clipPath13345-7">
      <rect
         style="opacity:1;fill:#6a6c00;fill-opacity:1;fill-rule:nonzero;stroke:none;stroke-width:0.0694698;stroke-linecap:round;stroke-linejoin:bevel;stroke-miterlimit:4;stroke-dasharray:none;stroke-dashoffset:0;stroke-opacity:1;paint-order:stroke fill markers"
         id="rect13347-5"
         width="19.466074"
         height="12.082369"
         x="1881.4026"
         y="-314.73566" />
    </clipPath>
    <clipPath
       clipPathUnits="userSpaceOnUse"
       id="clipPath16797-35">
      <rect
         style="opacity:0.377;fill:#ffffff;fill-opacity:1;fill-rule:nonzero;stroke:#d29411;stroke-width:0.0782279;stroke-linecap:round;stroke-linejoin:bevel;stroke-miterlimit:4;stroke-dasharray:none;stroke-dashoffset:0;stroke-opacity:1;paint-order:stroke fill markers"
         id="rect16799-62"
         width="3.5993745"
         height="4.8482285"
         x="646.90082"
         y="-410.08679" />
    </clipPath>
    <clipPath
       clipPathUnits="userSpaceOnUse"
       id="clipPath13345-9">
      <rect
         style="opacity:1;fill:#6a6c00;fill-opacity:1;fill-rule:nonzero;stroke:none;stroke-width:0.0694698;stroke-linecap:round;stroke-linejoin:bevel;stroke-miterlimit:4;stroke-dasharray:none;stroke-dashoffset:0;stroke-opacity:1;paint-order:stroke fill markers"
         id="rect13347-1"
         width="19.466074"
         height="12.082369"
         x="1881.4026"
         y="-314.73566" />
    </clipPath>
    <clipPath
       clipPathUnits="userSpaceOnUse"
       id="clipPath19168">
      <ellipse
         ry="14.423544"
         rx="13.69943"
         cy="-510.08447"
         cx="813.47662"
         id="ellipse19170"
         style="opacity:0.466;fill:#ffffff;fill-opacity:1;fill-rule:nonzero;stroke:none;stroke-width:2.09693;stroke-linecap:round;stroke-linejoin:round;stroke-miterlimit:4;stroke-dasharray:2.09693, 4.19386;stroke-dashoffset:0;stroke-opacity:1;paint-order:stroke fill markers" />
    </clipPath>
    <clipPath
       clipPathUnits="userSpaceOnUse"
       id="clipPath18254">
      <ellipse
         style="opacity:1;fill:#8e5027;fill-opacity:0.443975;fill-rule:nonzero;stroke:none;stroke-width:0.1;stroke-linecap:round;stroke-linejoin:bevel;stroke-miterlimit:4;stroke-dasharray:none;stroke-dashoffset:0;stroke-opacity:1;paint-order:stroke fill markers"
         id="ellipse18256"
         cx="1957.3223"
         cy="-319.62045"
         rx="7.0778103"
         ry="8.9008827" />
    </clipPath>
    <clipPath
       clipPathUnits="userSpaceOnUse"
       id="clipPath18397">
      <rect
         y="-297.06506"
         x="1905.204"
         height="12.22531"
         width="23.807178"
         id="rect18399"
         style="opacity:1;fill:#8e5027;fill-opacity:0.443975;fill-rule:nonzero;stroke:none;stroke-width:0.0708508;stroke-linecap:round;stroke-linejoin:bevel;stroke-miterlimit:4;stroke-dasharray:none;stroke-dashoffset:0;stroke-opacity:1;paint-order:stroke fill markers" />
    </clipPath>
    <clipPath
       clipPathUnits="userSpaceOnUse"
       id="clipPath22373">
      <path
         style="fill:#4cbfbf;fill-opacity:1;stroke:#333333;stroke-width:0.129253;stroke-opacity:1"
         d="m 1774.624,-304.39405 v -9.88588 h 6.1514 6.1514 v 7.0156 7.0156 h -0.5552 c -0.4395,0 -0.6225,0.0717 -0.8787,0.34392 -0.178,0.18914 -0.3237,0.48909 -0.3237,0.66654 0,0.17745 -0.032,0.29365 -0.07,0.2582 -0.038,-0.0354 -0.4598,-1.22505 -0.9355,-2.64358 -0.9501,-2.83262 -1.072,-3.01757 -1.9893,-3.01757 -0.5891,0 -1.1247,0.37548 -1.263,0.88528 -0.049,0.18087 0.4538,1.93969 1.3464,4.70958 0.7837,2.43148 1.4248,4.44727 1.4248,4.47953 0,0.0323 -2.038,0.0586 -4.5291,0.0586 h -4.529 z"
         id="path22375"
         inkscape:connector-curvature="0" />
    </clipPath>
    <clipPath
       clipPathUnits="userSpaceOnUse"
       id="clipPath18254-2">
      <ellipse
         style="opacity:1;fill:#8e5027;fill-opacity:0.443975;fill-rule:nonzero;stroke:none;stroke-width:0.1;stroke-linecap:round;stroke-linejoin:bevel;stroke-miterlimit:4;stroke-dasharray:none;stroke-dashoffset:0;stroke-opacity:1;paint-order:stroke fill markers"
         id="ellipse18256-7"
         cx="1957.3223"
         cy="-319.62045"
         rx="7.0778103"
         ry="8.9008827" />
    </clipPath>
    <clipPath
       clipPathUnits="userSpaceOnUse"
       id="clipPath18397-0">
      <rect
         y="-297.06506"
         x="1905.204"
         height="12.22531"
         width="23.807178"
         id="rect18399-9"
         style="opacity:1;fill:#8e5027;fill-opacity:0.443975;fill-rule:nonzero;stroke:none;stroke-width:0.0708508;stroke-linecap:round;stroke-linejoin:bevel;stroke-miterlimit:4;stroke-dasharray:none;stroke-dashoffset:0;stroke-opacity:1;paint-order:stroke fill markers" />
    </clipPath>
    <clipPath
       clipPathUnits="userSpaceOnUse"
       id="clipPath6352">
      <rect
         style="opacity:0.601;fill:#f0b09f;fill-opacity:1;fill-rule:nonzero;stroke:none;stroke-width:6.96073;stroke-linecap:butt;stroke-linejoin:round;stroke-miterlimit:4;stroke-dasharray:none;stroke-dashoffset:0;stroke-opacity:1;paint-order:fill markers stroke"
         id="rect6354"
         width="200.07095"
         height="318.39249"
         x="1577.4336"
         y="-618.57861"
         transform="rotate(-13.290944)" />
    </clipPath>
    <clipPath
       clipPathUnits="userSpaceOnUse"
       id="clipPath6536">
      <rect
         style="opacity:0.601;fill:#a8757f;fill-opacity:1;fill-rule:nonzero;stroke:none;stroke-width:1;stroke-linecap:butt;stroke-linejoin:round;stroke-miterlimit:4;stroke-dasharray:none;stroke-dashoffset:0;stroke-opacity:1;paint-order:fill markers stroke"
         id="rect6538"
         width="10.92126"
         height="9.9310646"
         x="1035.3741"
         y="-404.91055" />
    </clipPath>
  </defs>
  <sodipodi:namedview
     pagecolor="#ffffff"
     bordercolor="#666666"
     borderopacity="1"
     objecttolerance="10"
     gridtolerance="10"
     guidetolerance="10"
     inkscape:pageopacity="0"
     inkscape:pageshadow="2"
     inkscape:window-width="1366"
     inkscape:window-height="744"
     id="namedview10"
     showgrid="false"
     borderlayer="true"
     inkscape:zoom="1"
     inkscape:cx="93.066931"
     inkscape:cy="4.2917587"
     inkscape:window-x="0"
     inkscape:window-y="0"
     inkscape:window-maximized="1"
     inkscape:current-layer="layer2"
     inkscape:document-rotation="0"
     fit-margin-top="0"
     fit-margin-left="0"
     fit-margin-right="0"
     fit-margin-bottom="0"
     showguides="true"
     inkscape:guide-bbox="true">
    <sodipodi:guide
       position="2.8281251,177.16422"
       orientation="1,0"
       id="guide17506" />
    <sodipodi:guide
       position="3.8867188,177.05484"
       orientation="0,-1"
       id="guide17508" />
    <sodipodi:guide
       position="42.9375,2.8204655"
       orientation="0,-1"
       id="guide17512" />
    <sodipodi:guide
       position="119.25,172.22672"
       orientation="1,0"
       id="guide17787" />
  </sodipodi:namedview>
  <g
     inkscape:groupmode="layer"
     id="layer1"
     inkscape:label="Base">
    <path
       id="rect1492"
       style="fill:#c8e294;fill-opacity:1;fill-rule:nonzero;stroke:none;stroke-width:4.10427;stroke-linecap:round;stroke-linejoin:round;stroke-miterlimit:4;stroke-dasharray:none;stroke-dashoffset:0;stroke-opacity:1;paint-order:stroke fill markers"
       sodipodi:type="inkscape:offset"
       inkscape:radius="-2.8284252"
       inkscape:original="M -122.12305 -179.89258 L -122.12305 0 L 0.001953125 0 L 0.001953125 -179.89258 L -122.12305 -179.89258 z "
       d="M -119.29492,-177.06445 V -2.828125 H -2.8261719 V -177.06445 Z"
       transform="rotate(180,-0.00125839,-0.00240248)" />
  </g>
  <g
     inkscape:groupmode="layer"
     id="layer2"
     inkscape:label="Ilustra">
    <g
       id="g27197"
       transform="translate(-0.10160998,-7.3582468)">
      <g
         id="g27134"
         transform="matrix(0.92284978,0,0,0.92284978,212.36561,7.0452703)">
        <path
           d="m -212.63841,124.39929 h -2.02167 v -7.87238 h -2.5973 v -1.68695 h 7.21626 v 1.68695 h -2.59729 z"
           style="font-style:normal;font-variant:normal;font-weight:bold;font-stretch:normal;font-size:3.54236px;line-height:1.25;font-family:sans-serif;-inkscape-font-specification:'sans-serif, Bold';font-variant-ligatures:normal;font-variant-caps:normal;font-variant-numeric:normal;font-feature-settings:normal;text-align:center;letter-spacing:0px;word-spacing:0px;writing-mode:lr-tb;text-anchor:middle;fill:#545137;fill-opacity:1;stroke:none;stroke-width:0.260161"
           id="path19268"
           inkscape:connector-curvature="0" />
        <path
           d="m -205.33712,116.95532 q 0.1474,0 0.34771,0.0151 0.20032,0.0151 0.32126,0.0401 l -0.1474,1.87438 q -0.10583,-0.0264 -0.27968,-0.0401 -0.17386,-0.0265 -0.30992,-0.0265 -0.50873,0 -0.97739,0.18747 -0.46866,0.17423 -0.76309,0.57569 -0.27968,0.40169 -0.27968,1.09788 v 3.72197 h -1.99521 v -7.31006 h 1.51294 l 0.2948,1.23171 h 0.0945 q 0.32126,-0.56232 0.88366,-0.96397 0.56239,-0.40165 1.29864,-0.40165 z"
           style="font-style:normal;font-variant:normal;font-weight:bold;font-stretch:normal;font-size:3.54236px;line-height:1.25;font-family:sans-serif;-inkscape-font-specification:'sans-serif, Bold';font-variant-ligatures:normal;font-variant-caps:normal;font-variant-numeric:normal;font-feature-settings:normal;text-align:center;letter-spacing:0px;word-spacing:0px;writing-mode:lr-tb;text-anchor:middle;fill:#545137;fill-opacity:1;stroke:none;stroke-width:0.260161"
           id="path19270"
           inkscape:connector-curvature="0" />
        <path
           d="m -200.61649,116.94194 q 1.4725,0 2.24919,0.64263 0.78993,0.62926 0.78993,1.94136 v 4.87336 h -1.39238 l -0.38816,-0.99073 h -0.0529 q -0.46867,0.58908 -0.991,0.85686 -0.52195,0.26797 -1.43244,0.26797 -0.97738,0 -1.6199,-0.56232 -0.6429,-0.56232 -0.6429,-1.75389 0,-1.16481 0.81676,-1.71372 0.81675,-0.54893 2.45026,-0.61587 l 1.27181,-0.0401 v -0.32126 q 0,-0.57574 -0.30992,-0.84348 -0.2948,-0.26759 -0.82998,-0.26759 -0.53556,0 -1.04428,0.16063 -0.50873,0.1474 -1.01783,0.37493 l -0.65575,-1.3522 q 0.57562,-0.29443 1.29865,-0.46863 0.72302,-0.18746 1.49934,-0.18746 z m 1.05751,4.0701 -0.77632,0.0264 q -0.96415,0.0265 -1.33908,0.3481 -0.37418,0.32126 -0.37418,0.84348 0,0.4552 0.26835,0.65605 0.26835,0.18746 0.69619,0.18746 0.6429,0 1.08472,-0.37493 0.44183,-0.38823 0.44183,-1.08446 z m 1.51294,-6.86827 v 0.13379 q -0.18897,0.18747 -0.49549,0.45521 -0.30992,0.26759 -0.66936,0.56232 -0.34771,0.29442 -0.69619,0.56231 -0.33637,0.25437 -0.58885,0.42841 h -1.32548 v -0.17385 q 0.21544,-0.25437 0.49512,-0.58908 0.2948,-0.3481 0.5624,-0.70961 0.27968,-0.37493 0.48189,-0.66939 z"
           style="font-style:normal;font-variant:normal;font-weight:bold;font-stretch:normal;font-size:3.54236px;line-height:1.25;font-family:sans-serif;-inkscape-font-specification:'sans-serif, Bold';font-variant-ligatures:normal;font-variant-caps:normal;font-variant-numeric:normal;font-feature-settings:normal;text-align:center;letter-spacing:0px;word-spacing:0px;writing-mode:lr-tb;text-anchor:middle;fill:#545137;fill-opacity:1;stroke:none;stroke-width:0.260161"
           id="path19272"
           inkscape:connector-curvature="0" />
        <path
           d="m -191.49196,118.58872 h -1.72724 v 5.81057 h -1.99484 v -5.81057 h -1.09795 v -0.96397 l 1.09795,-0.53552 v -0.53556 q 0,-0.93717 0.30992,-1.44593 0.32126,-0.52218 0.89689,-0.73637 0.58923,-0.2143 1.37915,-0.2143 0.57562,0 1.05751,0.0937 0.48227,0.0937 0.77669,0.2143 l -0.50872,1.45935 q -0.22677,-0.0669 -0.50873,-0.12056 -0.26834,-0.0669 -0.60245,-0.0669 -0.415,0 -0.61607,0.25436 -0.18897,0.25436 -0.18897,0.64267 v 0.45521 h 1.72724 z"
           style="font-style:normal;font-variant:normal;font-weight:bold;font-stretch:normal;font-size:3.54236px;line-height:1.25;font-family:sans-serif;-inkscape-font-specification:'sans-serif, Bold';font-variant-ligatures:normal;font-variant-caps:normal;font-variant-numeric:normal;font-feature-settings:normal;text-align:center;letter-spacing:0px;word-spacing:0px;writing-mode:lr-tb;text-anchor:middle;fill:#545137;fill-opacity:1;stroke:none;stroke-width:0.260161"
           id="path19274"
           inkscape:connector-curvature="0" />
        <path
           d="m -189.35388,114.22408 q 0.44183,0 0.76347,0.2143 0.32126,0.20069 0.32126,0.76313 0,0.54893 -0.32126,0.76316 -0.32126,0.2143 -0.76347,0.2143 -0.45505,0 -0.77631,-0.2143 -0.30993,-0.2143 -0.30993,-0.76316 0,-0.56232 0.30993,-0.76313 0.32126,-0.2143 0.77631,-0.2143 z m 0.99099,2.86515 v 7.31006 h -1.99483 v -7.31006 z"
           style="font-style:normal;font-variant:normal;font-weight:bold;font-stretch:normal;font-size:3.54236px;line-height:1.25;font-family:sans-serif;-inkscape-font-specification:'sans-serif, Bold';font-variant-ligatures:normal;font-variant-caps:normal;font-variant-numeric:normal;font-feature-settings:normal;text-align:center;letter-spacing:0px;word-spacing:0px;writing-mode:lr-tb;text-anchor:middle;fill:#545137;fill-opacity:1;stroke:none;stroke-width:0.260161"
           id="path19276"
           inkscape:connector-curvature="0" />
        <path
           d="m -183.30626,124.5332 q -1.63351,0 -2.53039,-0.89704 -0.88365,-0.89703 -0.88365,-2.85173 0,-1.33886 0.45505,-2.18233 0.45543,-0.84348 1.25858,-1.24513 0.81676,-0.40165 1.87427,-0.40165 0.74986,0 1.29865,0.1474 0.56239,0.1474 0.97738,0.3481 l -0.58885,1.53966 q -0.46866,-0.18746 -0.88365,-0.30803 -0.40176,-0.12057 -0.80353,-0.12057 -1.55301,0 -1.55301,2.20906 0,1.09788 0.40177,1.62002 0.41499,0.52214 1.15124,0.52214 0.62929,0 1.11118,-0.16063 0.48227,-0.17386 0.93733,-0.46858 v 1.70033 q -0.45506,0.29443 -0.96378,0.41503 -0.4955,0.1338 -1.25859,0.1338 z"
           style="font-style:normal;font-variant:normal;font-weight:bold;font-stretch:normal;font-size:3.54236px;line-height:1.25;font-family:sans-serif;-inkscape-font-specification:'sans-serif, Bold';font-variant-ligatures:normal;font-variant-caps:normal;font-variant-numeric:normal;font-feature-settings:normal;text-align:center;letter-spacing:0px;word-spacing:0px;writing-mode:lr-tb;text-anchor:middle;fill:#545137;fill-opacity:1;stroke:none;stroke-width:0.260161"
           id="path19278"
           inkscape:connector-curvature="0" />
        <path
           d="m -172.76062,120.73088 q 0,1.82082 -0.96416,2.81155 -0.95055,0.99077 -2.59729,0.99077 -1.01745,0 -1.8206,-0.44183 -0.78992,-0.44183 -1.24535,-1.2853 -0.45506,-0.85686 -0.45506,-2.07519 0,-1.82083 0.95056,-2.79821 0.95055,-0.97735 2.61089,-0.97735 1.03068,0 1.8206,0.44183 0.78992,0.44182 1.24536,1.2853 0.45505,0.84348 0.45505,2.04843 z m -5.04756,0 q 0,1.08446 0.34772,1.64678 0.36283,0.5489 1.16485,0.5489 0.78992,0 1.13801,-0.5489 0.36284,-0.56232 0.36284,-1.64678 0,-1.08446 -0.36284,-1.62002 -0.34771,-0.5489 -1.15124,-0.5489 -0.78992,0 -1.15162,0.5489 -0.34772,0.53556 -0.34772,1.62002 z"
           style="font-style:normal;font-variant:normal;font-weight:bold;font-stretch:normal;font-size:3.54236px;line-height:1.25;font-family:sans-serif;-inkscape-font-specification:'sans-serif, Bold';font-variant-ligatures:normal;font-variant-caps:normal;font-variant-numeric:normal;font-feature-settings:normal;text-align:center;letter-spacing:0px;word-spacing:0px;writing-mode:lr-tb;text-anchor:middle;fill:#545137;fill-opacity:1;stroke:none;stroke-width:0.260161"
           id="path19280"
           inkscape:connector-curvature="0" />
        <path
           d="m -163.56389,116.95532 q 1.23174,0 1.99483,0.96397 0.76309,0.95059 0.76309,2.81159 0,1.87438 -0.78992,2.83835 -0.78993,0.96397 -2.02167,0.96397 -0.78992,0 -1.25859,-0.2812 -0.46866,-0.29443 -0.76308,-0.65605 h -0.10583 q 0.10583,0.56232 0.10583,1.07108 v 2.94546 h -1.99484 v -10.5233 h 1.61991 l 0.27968,0.95055 h 0.0945 q 0.2948,-0.44179 0.78992,-0.76312 0.4955,-0.32126 1.28542,-0.32126 z m -0.6429,1.59322 q -0.77632,0 -1.09758,0.49538 -0.32126,0.48201 -0.33637,1.45936 v 0.21429 q 0,1.05767 0.30992,1.63337 0.32126,0.56231 1.15124,0.56231 0.68296,0 1.00422,-0.56231 0.33638,-0.5757 0.33638,-1.64678 0,-2.15554 -1.36554,-2.15554 z"
           style="font-style:normal;font-variant:normal;font-weight:bold;font-stretch:normal;font-size:3.54236px;line-height:1.25;font-family:sans-serif;-inkscape-font-specification:'sans-serif, Bold';font-variant-ligatures:normal;font-variant-caps:normal;font-variant-numeric:normal;font-feature-settings:normal;text-align:center;letter-spacing:0px;word-spacing:0px;writing-mode:lr-tb;text-anchor:middle;fill:#545137;fill-opacity:1;stroke:none;stroke-width:0.260161"
           id="path19282"
           inkscape:connector-curvature="0" />
        <path
           d="m -156.16282,116.94194 q 1.47288,0 2.24919,0.64263 0.78992,0.62926 0.78992,1.94136 v 4.87336 h -1.39237 l -0.38816,-0.99073 h -0.0529 q -0.46867,0.58908 -0.99062,0.85686 -0.52233,0.26797 -1.43282,0.26797 -0.97738,0 -1.6199,-0.56232 -0.64252,-0.56232 -0.64252,-1.75389 0,-1.16481 0.81675,-1.71372 0.81638,-0.54893 2.44989,-0.61587 l 1.27181,-0.0401 v -0.32126 q 0,-0.57574 -0.30992,-0.84348 -0.2948,-0.26759 -0.82998,-0.26759 -0.53556,0 -1.04428,0.16063 -0.50873,0.1474 -1.01745,0.37493 l -0.65613,-1.3522 q 0.57562,-0.29443 1.29865,-0.46863 0.72302,-0.18746 1.49933,-0.18746 z m 1.05789,4.0701 -0.7767,0.0264 q -0.96378,0.0265 -1.33871,0.3481 -0.37417,0.32126 -0.37417,0.84348 0,0.4552 0.26835,0.65605 0.26834,0.18746 0.69619,0.18746 0.64252,0 1.08434,-0.37493 0.44183,-0.38823 0.44183,-1.08446 z"
           style="font-style:normal;font-variant:normal;font-weight:bold;font-stretch:normal;font-size:3.54236px;line-height:1.25;font-family:sans-serif;-inkscape-font-specification:'sans-serif, Bold';font-variant-ligatures:normal;font-variant-caps:normal;font-variant-numeric:normal;font-feature-settings:normal;text-align:center;letter-spacing:0px;word-spacing:0px;writing-mode:lr-tb;text-anchor:middle;fill:#545137;fill-opacity:1;stroke:none;stroke-width:0.260161"
           id="path19284"
           inkscape:connector-curvature="0" />
        <path
           d="m -146.99822,116.95532 q 0.1474,0 0.34771,0.0151 0.20032,0.0151 0.32126,0.0401 l -0.1474,1.87438 q -0.10583,-0.0264 -0.27969,-0.0401 -0.17385,-0.0265 -0.30992,-0.0265 -0.50872,0 -0.97738,0.18747 -0.46829,0.17423 -0.76309,0.57569 -0.27968,0.40169 -0.27968,1.09788 v 3.72197 h -1.99484 v -7.31006 h 1.51295 l 0.2948,1.23171 h 0.0945 q 0.32126,-0.56232 0.88365,-0.96397 0.5624,-0.40165 1.29865,-0.40165 z"
           style="font-style:normal;font-variant:normal;font-weight:bold;font-stretch:normal;font-size:3.54236px;line-height:1.25;font-family:sans-serif;-inkscape-font-specification:'sans-serif, Bold';font-variant-ligatures:normal;font-variant-caps:normal;font-variant-numeric:normal;font-feature-settings:normal;text-align:center;letter-spacing:0px;word-spacing:0px;writing-mode:lr-tb;text-anchor:middle;fill:#545137;fill-opacity:1;stroke:none;stroke-width:0.260161"
           id="path19286"
           inkscape:connector-curvature="0" />
        <path
           d="m -142.27759,116.94194 q 1.47288,0 2.24957,0.64263 0.78992,0.62926 0.78992,1.94136 v 4.87336 h -1.39275 l -0.38816,-0.99073 h -0.0529 q -0.46866,0.58908 -0.99061,0.85686 -0.52233,0.26797 -1.43244,0.26797 -0.97739,0 -1.62028,-0.56232 -0.64252,-0.56232 -0.64252,-1.75389 0,-1.16481 0.81675,-1.71372 0.81676,-0.54893 2.44989,-0.61587 l 1.27219,-0.0401 v -0.32126 q 0,-0.57574 -0.30992,-0.84348 -0.2948,-0.26759 -0.83036,-0.26759 -0.53556,0 -1.04429,0.16063 -0.50872,0.1474 -1.01744,0.37493 l -0.65613,-1.3522 q 0.576,-0.29443 1.29864,-0.46863 0.72303,-0.18746 1.49972,-0.18746 z m 1.05788,4.0701 -0.77669,0.0264 q -0.96378,0.0265 -1.33871,0.3481 -0.37417,0.32126 -0.37417,0.84348 0,0.4552 0.26835,0.65605 0.26834,0.18746 0.69619,0.18746 0.64252,0 1.08434,-0.37493 0.44183,-0.38823 0.44183,-1.08446 z"
           style="font-style:normal;font-variant:normal;font-weight:bold;font-stretch:normal;font-size:3.54236px;line-height:1.25;font-family:sans-serif;-inkscape-font-specification:'sans-serif, Bold';font-variant-ligatures:normal;font-variant-caps:normal;font-variant-numeric:normal;font-feature-settings:normal;text-align:center;letter-spacing:0px;word-spacing:0px;writing-mode:lr-tb;text-anchor:middle;fill:#545137;fill-opacity:1;stroke:none;stroke-width:0.260161"
           id="path19288"
           inkscape:connector-curvature="0" />
        <path
           d="m -129.67514,118.58872 h -1.72724 v 5.81057 h -1.99484 v -5.81057 h -1.09757 v -0.96397 l 1.09757,-0.53552 v -0.53556 q 0,-0.93717 0.30992,-1.44593 0.32126,-0.52218 0.89726,-0.73637 0.58885,-0.2143 1.37878,-0.2143 0.576,0 1.05789,0.0937 0.48189,0.0937 0.77631,0.2143 l -0.50872,1.45935 q -0.22678,-0.0669 -0.50873,-0.12056 -0.26834,-0.0669 -0.60245,-0.0669 -0.415,0 -0.61569,0.25436 -0.18898,0.25436 -0.18898,0.64267 v 0.45521 h 1.72687 z"
           style="font-style:normal;font-variant:normal;font-weight:bold;font-stretch:normal;font-size:3.54236px;line-height:1.25;font-family:sans-serif;-inkscape-font-specification:'sans-serif, Bold';font-variant-ligatures:normal;font-variant-caps:normal;font-variant-numeric:normal;font-feature-settings:normal;text-align:center;letter-spacing:0px;word-spacing:0px;writing-mode:lr-tb;text-anchor:middle;fill:#545137;fill-opacity:1;stroke:none;stroke-width:0.260161"
           id="path19290"
           inkscape:connector-curvature="0" />
        <path
           d="m -127.53668,114.22408 q 0.44183,0 0.76309,0.2143 0.32126,0.20069 0.32126,0.76313 0,0.54893 -0.32126,0.76316 -0.32126,0.2143 -0.76309,0.2143 -0.45543,0 -0.77669,-0.2143 -0.30993,-0.2143 -0.30993,-0.76316 0,-0.56232 0.30993,-0.76313 0.32126,-0.2143 0.77669,-0.2143 z m 0.99061,2.86515 v 7.31006 h -1.99483 v -7.31006 z"
           style="font-style:normal;font-variant:normal;font-weight:bold;font-stretch:normal;font-size:3.54236px;line-height:1.25;font-family:sans-serif;-inkscape-font-specification:'sans-serif, Bold';font-variant-ligatures:normal;font-variant-caps:normal;font-variant-numeric:normal;font-feature-settings:normal;text-align:center;letter-spacing:0px;word-spacing:0px;writing-mode:lr-tb;text-anchor:middle;fill:#545137;fill-opacity:1;stroke:none;stroke-width:0.260161"
           id="path19292"
           inkscape:connector-curvature="0" />
        <path
           d="m -120.31136,116.95532 q 1.17846,0 1.88788,0.64267 0.70979,0.62925 0.70979,2.03501 v 4.76629 h -1.99521 v -4.27091 q 0,-0.78992 -0.27969,-1.17819 -0.27968,-0.40165 -0.89688,-0.40165 -0.91049,0 -1.24498,0.62926 -0.33637,0.61587 -0.33637,1.78068 v 3.44081 h -1.99484 v -7.31006 h 1.52618 l 0.26834,0.93717 h 0.10583 q 0.34772,-0.56232 0.95055,-0.81668 0.61569,-0.25436 1.29865,-0.25436 z"
           style="font-style:normal;font-variant:normal;font-weight:bold;font-stretch:normal;font-size:3.54236px;line-height:1.25;font-family:sans-serif;-inkscape-font-specification:'sans-serif, Bold';font-variant-ligatures:normal;font-variant-caps:normal;font-variant-numeric:normal;font-feature-settings:normal;text-align:center;letter-spacing:0px;word-spacing:0px;writing-mode:lr-tb;text-anchor:middle;fill:#545137;fill-opacity:1;stroke:none;stroke-width:0.260161"
           id="path19294"
           inkscape:connector-curvature="0" />
        <path
           d="m -110.57454,122.23037 q 0,1.11126 -0.78992,1.71371 -0.77632,0.58912 -2.32932,0.58912 -0.76347,0 -1.31226,-0.10696 -0.54878,-0.0937 -1.09795,-0.32126 v -1.64678 q 0.58923,0.26759 1.27219,0.44183 0.68258,0.17423 1.20491,0.17423 0.57563,0 0.82999,-0.17423 0.25323,-0.17424 0.25323,-0.45521 0,-0.18747 -0.10583,-0.33487 -0.0945,-0.1474 -0.4286,-0.33486 -0.33638,-0.18747 -1.04428,-0.48197 -0.69619,-0.29442 -1.13802,-0.5757 -0.42822,-0.29442 -0.64252,-0.69622 -0.21543,-0.41503 -0.21543,-1.03091 0,-1.01752 0.78992,-1.52628 0.78992,-0.50877 2.10217,-0.50877 0.68259,0 1.29865,0.1338 0.61568,0.13379 1.27181,0.44179 l -0.60246,1.43259 q -0.53555,-0.22753 -1.01744,-0.37493 -0.48227,-0.16063 -0.97739,-0.16063 -0.88365,0 -0.88365,0.482 0,0.17386 0.10582,0.32126 0.12095,0.1338 0.44183,0.29443 0.33638,0.16063 0.97739,0.42841 0.62929,0.25436 1.08434,0.53556 0.45506,0.26759 0.69619,0.68281 0.25323,0.41503 0.25323,1.05766 z"
           style="font-style:normal;font-variant:normal;font-weight:bold;font-stretch:normal;font-size:3.54236px;line-height:1.25;font-family:sans-serif;-inkscape-font-specification:'sans-serif, Bold';font-variant-ligatures:normal;font-variant-caps:normal;font-variant-numeric:normal;font-feature-settings:normal;text-align:center;letter-spacing:0px;word-spacing:0px;writing-mode:lr-tb;text-anchor:middle;fill:#545137;fill-opacity:1;stroke:none;stroke-width:0.260161"
           id="path19296"
           inkscape:connector-curvature="0" />
        <path
           d="m -207.06512,141.26876 q -1.21852,0 -1.99522,-0.95059 -0.76308,-0.96397 -0.76308,-2.82497 0,-1.87438 0.77669,-2.83835 0.77632,-0.96397 2.0349,-0.96397 0.78992,0 1.29864,0.30803 0.50873,0.30803 0.80353,0.76312 h 0.068 q -0.0416,-0.21429 -0.0945,-0.61587 -0.0529,-0.41503 -0.0529,-0.84348 v -2.34296 h 1.99484 v 10.17524 h -1.52618 l -0.38853,-0.95059 h -0.0794 q -0.29481,0.45521 -0.78992,0.77651 -0.49512,0.30803 -1.28504,0.30803 z m 0.69619,-1.59323 q 0.81637,0 1.15124,-0.482 0.33638,-0.49534 0.36283,-1.47273 v -0.2143 q 0,-1.0577 -0.33637,-1.62002 -0.32126,-0.5757 -1.20492,-0.5757 -0.65612,0 -1.03105,0.5757 -0.37418,0.56232 -0.37418,1.6334 0,1.07108 0.37418,1.61998 0.37417,0.53556 1.05789,0.53556 z"
           style="font-style:normal;font-variant:normal;font-weight:bold;font-stretch:normal;font-size:3.54236px;line-height:1.25;font-family:sans-serif;-inkscape-font-specification:'sans-serif, Bold';font-variant-ligatures:normal;font-variant-caps:normal;font-variant-numeric:normal;font-feature-settings:normal;text-align:center;letter-spacing:0px;word-spacing:0px;writing-mode:lr-tb;text-anchor:middle;fill:#545137;fill-opacity:1;stroke:none;stroke-width:0.260161"
           id="path19298"
           inkscape:connector-curvature="0" />
        <path
           d="m -197.89675,133.69088 q 1.51295,0 2.3966,0.87027 0.88366,0.85686 0.88366,2.45008 v 0.96397 h -4.7127 q 0.0378,0.84348 0.49512,1.32544 0.48227,0.48201 1.32548,0.48201 0.69619,0 1.27219,-0.1338 0.58885,-0.1474 1.20491,-0.44179 v 1.53967 q -0.54916,0.26759 -1.13801,0.38827 -0.58923,0.13379 -1.43282,0.13379 -1.09757,0 -1.94117,-0.40165 -0.84359,-0.41506 -1.32548,-1.23174 -0.48189,-0.8301 -0.48189,-2.10199 0,-1.27189 0.42823,-2.12878 0.44182,-0.85686 1.21851,-1.28527 0.77632,-0.42844 1.80737,-0.42844 z m 0,1.41917 q -0.58922,0 -0.96377,0.37493 -0.37418,0.37493 -0.44183,1.16478 h 2.79798 q 0,-0.65601 -0.36283,-1.09784 -0.33638,-0.44183 -1.03106,-0.44183 z"
           style="font-style:normal;font-variant:normal;font-weight:bold;font-stretch:normal;font-size:3.54236px;line-height:1.25;font-family:sans-serif;-inkscape-font-specification:'sans-serif, Bold';font-variant-ligatures:normal;font-variant-caps:normal;font-variant-numeric:normal;font-feature-settings:normal;text-align:center;letter-spacing:0px;word-spacing:0px;writing-mode:lr-tb;text-anchor:middle;fill:#545137;fill-opacity:1;stroke:none;stroke-width:0.260161"
           id="path19300"
           inkscape:connector-curvature="0" />
        <path
           d="m -186.49542,133.69088 q 1.51256,0 2.39622,0.87027 0.88365,0.85686 0.88365,2.45008 v 0.96397 h -4.71269 q 0.0378,0.84348 0.4955,1.32544 0.48188,0.48201 1.32548,0.48201 0.69618,0 1.27181,-0.1338 0.58922,-0.1474 1.20491,-0.44179 v 1.53967 q -0.54879,0.26759 -1.13802,0.38827 -0.58885,0.13379 -1.43244,0.13379 -1.09795,0 -1.94154,-0.40165 -0.84321,-0.41506 -1.32548,-1.23174 -0.48189,-0.8301 -0.48189,-2.10199 0,-1.27189 0.4286,-2.12878 0.44182,-0.85686 1.21814,-1.28527 0.77669,-0.42844 1.80775,-0.42844 z m 0,1.41917 q -0.58923,0 -0.96416,0.37493 -0.37417,0.37493 -0.44183,1.16478 h 2.79837 q 0,-0.65601 -0.36284,-1.09784 -0.33638,-0.44183 -1.03105,-0.44183 z"
           style="font-style:normal;font-variant:normal;font-weight:bold;font-stretch:normal;font-size:3.54236px;line-height:1.25;font-family:sans-serif;-inkscape-font-specification:'sans-serif, Bold';font-variant-ligatures:normal;font-variant-caps:normal;font-variant-numeric:normal;font-feature-settings:normal;text-align:center;letter-spacing:0px;word-spacing:0px;writing-mode:lr-tb;text-anchor:middle;fill:#545137;fill-opacity:1;stroke:none;stroke-width:0.260161"
           id="path19302"
           inkscape:connector-curvature="0" />
        <path
           d="m -180.34689,137.3995 -2.35615,-3.57471 h 2.26242 l 1.41921,2.32959 1.43282,-2.32959 h 2.26243 l -2.38299,3.57471 2.49033,3.73539 h -2.26281 l -1.53978,-2.50368 -1.5394,2.50368 h -2.2628 z"
           style="font-style:normal;font-variant:normal;font-weight:bold;font-stretch:normal;font-size:3.54236px;line-height:1.25;font-family:sans-serif;-inkscape-font-specification:'sans-serif, Bold';font-variant-ligatures:normal;font-variant-caps:normal;font-variant-numeric:normal;font-feature-settings:normal;text-align:center;letter-spacing:0px;word-spacing:0px;writing-mode:lr-tb;text-anchor:middle;fill:#545137;fill-opacity:1;stroke:none;stroke-width:0.260161"
           id="path19304"
           inkscape:connector-curvature="0" />
        <path
           d="m -170.03596,133.69088 q 1.23175,0 1.99484,0.96397 0.76308,0.95059 0.76308,2.81159 0,1.87438 -0.78992,2.83835 -0.78992,0.96397 -2.02167,0.96397 -0.78992,0 -1.25858,-0.2812 -0.46828,-0.29443 -0.76309,-0.65605 h -0.10582 q 0.10582,0.56232 0.10582,1.07108 v 2.94546 h -1.99483 v -10.5233 h 1.6199 l 0.27969,0.95055 h 0.0945 q 0.2948,-0.44179 0.78992,-0.76312 0.4955,-0.32126 1.28542,-0.32126 z m -0.64252,1.59322 q -0.77669,0 -1.09795,0.49538 -0.32126,0.48201 -0.33638,1.45935 v 0.2143 q 0,1.05767 0.30992,1.63336 0.32126,0.56232 1.15125,0.56232 0.68296,0 1.00422,-0.56232 0.33638,-0.57569 0.33638,-1.64677 0,-2.15554 -1.36555,-2.15554 z"
           style="font-style:normal;font-variant:normal;font-weight:bold;font-stretch:normal;font-size:3.54236px;line-height:1.25;font-family:sans-serif;-inkscape-font-specification:'sans-serif, Bold';font-variant-ligatures:normal;font-variant-caps:normal;font-variant-numeric:normal;font-feature-settings:normal;text-align:center;letter-spacing:0px;word-spacing:0px;writing-mode:lr-tb;text-anchor:middle;fill:#545137;fill-opacity:1;stroke:none;stroke-width:0.260161"
           id="path19306"
           inkscape:connector-curvature="0" />
        <path
           d="m -163.63873,141.13489 h -1.99483 v -10.17525 h 1.99483 z"
           style="font-style:normal;font-variant:normal;font-weight:bold;font-stretch:normal;font-size:3.54236px;line-height:1.25;font-family:sans-serif;-inkscape-font-specification:'sans-serif, Bold';font-variant-ligatures:normal;font-variant-caps:normal;font-variant-numeric:normal;font-feature-settings:normal;text-align:center;letter-spacing:0px;word-spacing:0px;writing-mode:lr-tb;text-anchor:middle;fill:#545137;fill-opacity:1;stroke:none;stroke-width:0.260161"
           id="path19308"
           inkscape:connector-curvature="0" />
        <path
           d="m -154.91369,137.46644 q 0,1.82082 -0.96416,2.81155 -0.95055,0.99077 -2.59729,0.99077 -1.01745,0 -1.8206,-0.44183 -0.78992,-0.44183 -1.24535,-1.2853 -0.45506,-0.85686 -0.45506,-2.07519 0,-1.82083 0.95055,-2.79818 0.95056,-0.97738 2.6109,-0.97738 1.03068,0 1.8206,0.44183 0.78992,0.44182 1.24536,1.2853 0.45505,0.84348 0.45505,2.04843 z m -5.04756,0 q 0,1.08446 0.34772,1.64678 0.36283,0.54893 1.16485,0.54893 0.78992,0 1.13801,-0.54893 0.36284,-0.56232 0.36284,-1.64678 0,-1.08446 -0.36284,-1.62002 -0.34771,-0.5489 -1.15124,-0.5489 -0.78992,0 -1.15162,0.5489 -0.34772,0.53556 -0.34772,1.62002 z"
           style="font-style:normal;font-variant:normal;font-weight:bold;font-stretch:normal;font-size:3.54236px;line-height:1.25;font-family:sans-serif;-inkscape-font-specification:'sans-serif, Bold';font-variant-ligatures:normal;font-variant-caps:normal;font-variant-numeric:normal;font-feature-settings:normal;text-align:center;letter-spacing:0px;word-spacing:0px;writing-mode:lr-tb;text-anchor:middle;fill:#545137;fill-opacity:1;stroke:none;stroke-width:0.260161"
           id="path19310"
           inkscape:connector-curvature="0" />
        <path
           d="m -149.18166,133.69088 q 0.1474,0 0.34772,0.0151 0.20031,0.0151 0.32126,0.0401 l -0.1474,1.87438 q -0.10583,-0.0265 -0.27969,-0.0401 -0.17386,-0.0265 -0.30992,-0.0265 -0.50872,0 -0.97739,0.18747 -0.46866,0.17423 -0.76308,0.57573 -0.27969,0.40165 -0.27969,1.09784 v 3.722 h -1.99483 v -7.31009 h 1.51294 l 0.29481,1.23171 h 0.0945 q 0.32126,-0.56232 0.88366,-0.96397 0.56239,-0.40165 1.29864,-0.40165 z"
           style="font-style:normal;font-variant:normal;font-weight:bold;font-stretch:normal;font-size:3.54236px;line-height:1.25;font-family:sans-serif;-inkscape-font-specification:'sans-serif, Bold';font-variant-ligatures:normal;font-variant-caps:normal;font-variant-numeric:normal;font-feature-settings:normal;text-align:center;letter-spacing:0px;word-spacing:0px;writing-mode:lr-tb;text-anchor:middle;fill:#545137;fill-opacity:1;stroke:none;stroke-width:0.260161"
           id="path19312"
           inkscape:connector-curvature="0" />
        <path
           d="m -144.46103,133.6775 q 1.47288,0 2.2492,0.64263 0.78992,0.62926 0.78992,1.94136 v 4.8734 h -1.39238 l -0.38816,-0.99077 h -0.0529 q -0.46866,0.58908 -0.99061,0.85686 -0.52233,0.26759 -1.43282,0.26759 -0.97701,0 -1.61991,-0.56232 -0.64252,-0.56232 -0.64252,-1.75389 0,-1.16478 0.81676,-1.71371 0.81675,-0.54894 2.44989,-0.61588 l 1.27181,-0.0401 v -0.32126 q 0,-0.57574 -0.30992,-0.84348 -0.2948,-0.26759 -0.82999,-0.26759 -0.53555,0 -1.04428,0.16063 -0.50872,0.1474 -1.01745,0.37493 l -0.65612,-1.3522 q 0.57562,-0.29443 1.29864,-0.46862 0.72303,-0.18747 1.49972,-0.18747 z m 1.05789,4.0701 -0.77669,0.0264 q -0.96378,0.0265 -1.33871,0.3481 -0.37417,0.32126 -0.37417,0.84348 0,0.4552 0.26834,0.65605 0.26835,0.18746 0.69619,0.18746 0.64252,0 1.08435,-0.37493 0.44183,-0.38827 0.44183,-1.0845 z"
           style="font-style:normal;font-variant:normal;font-weight:bold;font-stretch:normal;font-size:3.54236px;line-height:1.25;font-family:sans-serif;-inkscape-font-specification:'sans-serif, Bold';font-variant-ligatures:normal;font-variant-caps:normal;font-variant-numeric:normal;font-feature-settings:normal;text-align:center;letter-spacing:0px;word-spacing:0px;writing-mode:lr-tb;text-anchor:middle;fill:#545137;fill-opacity:1;stroke:none;stroke-width:0.260161"
           id="path19314"
           inkscape:connector-curvature="0" />
        <path
           d="m -136.40761,141.26876 q -1.63313,0 -2.53039,-0.89704 -0.88366,-0.89703 -0.88366,-2.85173 0,-1.33886 0.45544,-2.18233 0.45505,-0.84348 1.2582,-1.24513 0.81676,-0.40165 1.87465,-0.40165 0.74948,0 1.29864,0.1474 0.5624,0.1474 0.97739,0.3481 l -0.58923,1.53966 q -0.46866,-0.18746 -0.88365,-0.30803 -0.40177,-0.12057 -0.80315,-0.12057 -1.55301,0 -1.55301,2.2091 0,1.09784 0.40138,1.61998 0.415,0.52214 1.15163,0.52214 0.62929,0 1.11118,-0.16063 0.48189,-0.17386 0.93732,-0.46858 v 1.70033 q -0.45543,0.29443 -0.96416,0.41507 -0.49549,0.13379 -1.25858,0.13379 z m 1.43282,1.49949 q 0,0.74978 -0.44183,1.16481 -0.44183,0.41503 -1.57984,0.41503 -0.2948,0 -0.53556,-0.0401 -0.22677,-0.0401 -0.41537,-0.0937 v -1.09787 q 0.18898,0.0537 0.45543,0.0937 0.27969,0.0401 0.48189,0.0401 0.18898,0 0.32126,-0.0937 0.1474,-0.0805 0.1474,-0.30803 0,-0.24114 -0.24189,-0.42845 -0.24189,-0.18746 -0.84359,-0.2812 l 0.50911,-1.0041 h 1.2582 l -0.17386,0.40165 q 0.40177,0.13379 0.72303,0.42841 0.33637,0.30803 0.33637,0.8033 z"
           style="font-style:normal;font-variant:normal;font-weight:bold;font-stretch:normal;font-size:3.54236px;line-height:1.25;font-family:sans-serif;-inkscape-font-specification:'sans-serif, Bold';font-variant-ligatures:normal;font-variant-caps:normal;font-variant-numeric:normal;font-feature-settings:normal;text-align:center;letter-spacing:0px;word-spacing:0px;writing-mode:lr-tb;text-anchor:middle;fill:#545137;fill-opacity:1;stroke:none;stroke-width:0.260161"
           id="path19316"
           inkscape:connector-curvature="0" />
        <path
           d="m -129.50355,133.6775 q 1.47288,0 2.2492,0.64263 0.78992,0.62926 0.78992,1.94136 v 4.8734 h -1.39238 l -0.38815,-0.99077 h -0.0529 q -0.46866,0.58908 -0.99061,0.85686 -0.52233,0.26759 -1.43282,0.26759 -0.97739,0 -1.61991,-0.56232 -0.64252,-0.56232 -0.64252,-1.75389 0,-1.16478 0.81676,-1.71371 0.81638,-0.54894 2.44989,-0.61588 l 1.27181,-0.0401 v -0.32126 q 0,-0.57574 -0.30992,-0.84348 -0.2948,-0.26759 -0.82999,-0.26759 -0.53555,0 -1.04428,0.16063 -0.50872,0.1474 -1.01745,0.37493 l -0.65612,-1.3522 q 0.57562,-0.29443 1.29864,-0.46862 0.72303,-0.18747 1.49972,-0.18747 z m 1.05789,4.0701 -0.77669,0.0264 q -0.96378,0.0265 -1.33871,0.3481 -0.37417,0.32126 -0.37417,0.84348 0,0.4552 0.26834,0.65605 0.26835,0.18746 0.69619,0.18746 0.64252,0 1.08435,-0.37493 0.44183,-0.38827 0.44183,-1.0845 z m -3.77575,-4.71273 q 0.0794,-1.04432 0.57563,-1.52629 0.50872,-0.49538 1.20491,-0.49538 0.36283,0 0.69657,0.17423 0.33637,0.17424 0.66935,0.3481 0.33638,0.16063 0.64252,0.16063 0.20032,0 0.38816,-0.17386 0.18897,-0.17424 0.26834,-0.52214 h 0.97739 q -0.0794,1.0309 -0.58885,1.52628 -0.5091,0.49535 -1.19168,0.49535 -0.34772,0 -0.69619,-0.16063 -0.34772,-0.17424 -0.66936,-0.3481 -0.32126,-0.17423 -0.6429,-0.17423 -0.20031,0 -0.38815,0.17423 -0.18898,0.17424 -0.26835,0.52215 z"
           style="font-style:normal;font-variant:normal;font-weight:bold;font-stretch:normal;font-size:3.54236px;line-height:1.25;font-family:sans-serif;-inkscape-font-specification:'sans-serif, Bold';font-variant-ligatures:normal;font-variant-caps:normal;font-variant-numeric:normal;font-feature-settings:normal;text-align:center;letter-spacing:0px;word-spacing:0px;writing-mode:lr-tb;text-anchor:middle;fill:#545137;fill-opacity:1;stroke:none;stroke-width:0.260161"
           id="path19318"
           inkscape:connector-curvature="0" />
        <path
           d="m -117.78172,137.46644 q 0,1.82082 -0.96378,2.81155 -0.95093,0.99077 -2.59767,0.99077 -1.01745,0 -1.8206,-0.44183 -0.78992,-0.44183 -1.24535,-1.2853 -0.45506,-0.85686 -0.45506,-2.07519 0,-1.82083 0.95055,-2.79818 0.95056,-0.97738 2.6109,-0.97738 1.03068,0 1.8206,0.44183 0.78992,0.44182 1.24535,1.2853 0.45506,0.84348 0.45506,2.04843 z m -5.04756,0 q 0,1.08446 0.34772,1.64678 0.36283,0.54893 1.16485,0.54893 0.78992,0 1.13801,-0.54893 0.36284,-0.56232 0.36284,-1.64678 0,-1.08446 -0.36284,-1.62002 -0.34771,-0.5489 -1.15124,-0.5489 -0.78992,0 -1.15162,0.5489 -0.34772,0.53556 -0.34772,1.62002 z"
           style="font-style:normal;font-variant:normal;font-weight:bold;font-stretch:normal;font-size:3.54236px;line-height:1.25;font-family:sans-serif;-inkscape-font-specification:'sans-serif, Bold';font-variant-ligatures:normal;font-variant-caps:normal;font-variant-numeric:normal;font-feature-settings:normal;text-align:center;letter-spacing:0px;word-spacing:0px;writing-mode:lr-tb;text-anchor:middle;fill:#545137;fill-opacity:1;stroke:none;stroke-width:0.260161"
           id="path19320"
           inkscape:connector-curvature="0" />
        <path
           d="m -218.57114,155.70149 q 0,1.11125 -0.78992,1.71375 -0.77632,0.58908 -2.3297,0.58908 -0.76309,0 -1.31188,-0.10697 -0.54878,-0.0937 -1.09795,-0.32126 v -1.64677 q 0.58923,0.26759 1.27181,0.44182 0.68296,0.17386 1.20529,0.17386 0.57563,0 0.82999,-0.17386 0.25323,-0.17423 0.25323,-0.4552 0,-0.18747 -0.10583,-0.33487 -0.0945,-0.1474 -0.4286,-0.33486 -0.33638,-0.18747 -1.04428,-0.48197 -0.69619,-0.29443 -1.13802,-0.5757 -0.42822,-0.29442 -0.64252,-0.69622 -0.21543,-0.41503 -0.21543,-1.03091 0,-1.01752 0.78992,-1.52629 0.78992,-0.50876 2.1018,-0.50876 0.68296,0 1.29902,0.1338 0.61569,0.13379 1.27181,0.44182 l -0.60246,1.43256 q -0.53555,-0.22753 -1.01744,-0.37493 -0.48227,-0.16063 -0.97739,-0.16063 -0.88365,0 -0.88365,0.482 0,0.17386 0.10582,0.32126 0.12095,0.1338 0.44183,0.29443 0.33638,0.16063 0.97739,0.42841 0.62891,0.25436 1.08434,0.53556 0.45506,0.26759 0.69619,0.68281 0.25323,0.41503 0.25323,1.05766 z"
           style="font-style:normal;font-variant:normal;font-weight:bold;font-stretch:normal;font-size:3.54236px;line-height:1.25;font-family:sans-serif;-inkscape-font-specification:'sans-serif, Bold';font-variant-ligatures:normal;font-variant-caps:normal;font-variant-numeric:normal;font-feature-settings:normal;text-align:center;letter-spacing:0px;word-spacing:0px;writing-mode:lr-tb;text-anchor:middle;fill:#545137;fill-opacity:1;stroke:none;stroke-width:0.260161"
           id="path19322"
           inkscape:connector-curvature="0" />
        <path
           d="m -214.01794,150.42644 q 1.51294,0 2.3966,0.87027 0.88365,0.85686 0.88365,2.45008 v 0.96397 h -4.71269 q 0.0378,0.84348 0.49549,1.32544 0.48189,0.48201 1.32548,0.48201 0.69619,0 1.27181,-0.1338 0.58923,-0.1474 1.20492,-0.44179 v 1.53967 q -0.54879,0.26759 -1.13802,0.38827 -0.58923,0.13379 -1.43244,0.13379 -1.09795,0 -1.94154,-0.40165 -0.84321,-0.41503 -1.32548,-1.23175 -0.48189,-0.83006 -0.48189,-2.10198 0,-1.27189 0.4286,-2.12874 0.44182,-0.8569 1.21814,-1.28531 0.77669,-0.42844 1.80737,-0.42844 z m 0,1.41917 q -0.58885,0 -0.96378,0.37493 -0.37417,0.37493 -0.44183,1.16481 h 2.79836 q 0,-0.65605 -0.36283,-1.09787 -0.33638,-0.44183 -1.03106,-0.44183 z"
           style="font-style:normal;font-variant:normal;font-weight:bold;font-stretch:normal;font-size:3.54236px;line-height:1.25;font-family:sans-serif;-inkscape-font-specification:'sans-serif, Bold';font-variant-ligatures:normal;font-variant-caps:normal;font-variant-numeric:normal;font-feature-settings:normal;text-align:center;letter-spacing:0px;word-spacing:0px;writing-mode:lr-tb;text-anchor:middle;fill:#545137;fill-opacity:1;stroke:none;stroke-width:0.260161"
           id="path19324"
           inkscape:connector-curvature="0" />
        <path
           d="m -207.86903,154.13506 -2.35616,-3.57471 h 2.26243 l 1.41921,2.32958 1.43282,-2.32958 h 2.26243 l -2.383,3.57471 2.49033,3.73538 h -2.2628 l -1.53978,-2.50367 -1.53978,2.50367 h -2.26242 z"
           style="font-style:normal;font-variant:normal;font-weight:bold;font-stretch:normal;font-size:3.54236px;line-height:1.25;font-family:sans-serif;-inkscape-font-specification:'sans-serif, Bold';font-variant-ligatures:normal;font-variant-caps:normal;font-variant-numeric:normal;font-feature-settings:normal;text-align:center;letter-spacing:0px;word-spacing:0px;writing-mode:lr-tb;text-anchor:middle;fill:#545137;fill-opacity:1;stroke:none;stroke-width:0.260161"
           id="path19326"
           inkscape:connector-curvature="0" />
        <path
           d="m -194.92075,150.56035 v 7.31009 h -1.52617 l -0.26834,-0.9372 h -0.10583 q -0.34772,0.56231 -0.96378,0.81668 -0.60284,0.25436 -1.28542,0.25436 -1.17808,0 -1.88787,-0.62926 -0.70942,-0.64263 -0.70942,-2.04842 v -4.76629 h 1.99483 v 4.2709 q 0,0.78992 0.27969,1.19157 0.27969,0.38828 0.89688,0.38828 0.91049,0 1.24536,-0.61588 0.33637,-0.62925 0.33637,-1.79406 v -3.44081 z"
           style="font-style:normal;font-variant:normal;font-weight:bold;font-stretch:normal;font-size:3.54236px;line-height:1.25;font-family:sans-serif;-inkscape-font-specification:'sans-serif, Bold';font-variant-ligatures:normal;font-variant-caps:normal;font-variant-numeric:normal;font-feature-settings:normal;text-align:center;letter-spacing:0px;word-spacing:0px;writing-mode:lr-tb;text-anchor:middle;fill:#545137;fill-opacity:1;stroke:none;stroke-width:0.260161"
           id="path19328"
           inkscape:connector-curvature="0" />
        <path
           d="m -189.84295,150.41306 q 1.4725,0 2.2492,0.64263 0.78992,0.62929 0.78992,1.94136 v 4.87339 h -1.39238 l -0.38816,-0.99076 h -0.0529 q -0.46828,0.58911 -0.99061,0.85686 -0.52196,0.26759 -1.43245,0.26759 -0.97738,0 -1.6199,-0.56232 -0.6429,-0.56232 -0.6429,-1.75389 0,-1.16478 0.81676,-1.71371 0.81675,-0.54894 2.45026,-0.61588 l 1.27182,-0.0401 v -0.32126 q 0,-0.5757 -0.30993,-0.84348 -0.2948,-0.26759 -0.82998,-0.26759 -0.53556,0 -1.04428,0.16063 -0.50873,0.1474 -1.01783,0.37493 l -0.65575,-1.35224 q 0.57562,-0.29442 1.29865,-0.46862 0.72302,-0.18747 1.49934,-0.18747 z m 1.05751,4.0701 -0.77631,0.0265 q -0.96416,0.0265 -1.33909,0.3481 -0.37417,0.32126 -0.37417,0.84347 0,0.45521 0.26834,0.65606 0.26835,0.18746 0.69619,0.18746 0.6429,0 1.08473,-0.37493 0.44182,-0.38827 0.44182,-1.0845 z"
           style="font-style:normal;font-variant:normal;font-weight:bold;font-stretch:normal;font-size:3.54236px;line-height:1.25;font-family:sans-serif;-inkscape-font-specification:'sans-serif, Bold';font-variant-ligatures:normal;font-variant-caps:normal;font-variant-numeric:normal;font-feature-settings:normal;text-align:center;letter-spacing:0px;word-spacing:0px;writing-mode:lr-tb;text-anchor:middle;fill:#545137;fill-opacity:1;stroke:none;stroke-width:0.260161"
           id="path19330"
           inkscape:connector-curvature="0" />
        <path
           d="m -182.76692,157.87044 h -1.99483 V 147.6952 h 1.99483 z"
           style="font-style:normal;font-variant:normal;font-weight:bold;font-stretch:normal;font-size:3.54236px;line-height:1.25;font-family:sans-serif;-inkscape-font-specification:'sans-serif, Bold';font-variant-ligatures:normal;font-variant-caps:normal;font-variant-numeric:normal;font-feature-settings:normal;text-align:center;letter-spacing:0px;word-spacing:0px;writing-mode:lr-tb;text-anchor:middle;fill:#545137;fill-opacity:1;stroke:none;stroke-width:0.260161"
           id="path19332"
           inkscape:connector-curvature="0" />
        <path
           d="m -174.88849,158.00432 q -1.21852,0 -1.99484,-0.95059 -0.76308,-0.96397 -0.76308,-2.82497 0,-1.87438 0.77631,-2.83835 0.77669,-0.96397 2.03528,-0.96397 0.78992,0 1.29864,0.30803 0.50873,0.30803 0.80315,0.76312 h 0.068 q -0.0416,-0.2143 -0.0945,-0.61587 -0.0529,-0.41503 -0.0529,-0.84344 v -2.343 h 1.99484 v 10.17524 h -1.52618 l -0.38815,-0.95059 h -0.0794 q -0.29481,0.45521 -0.78993,0.77654 -0.49549,0.30803 -1.28541,0.30803 z m 0.69619,-1.59323 q 0.81675,0 1.15124,-0.482 0.33638,-0.49534 0.36283,-1.47273 v -0.2143 q 0,-1.0577 -0.33637,-1.62002 -0.32126,-0.5757 -1.20492,-0.5757 -0.65612,0 -1.03105,0.5757 -0.37417,0.56232 -0.37417,1.6334 0,1.07108 0.37417,1.61998 0.37417,0.53556 1.05789,0.53556 z"
           style="font-style:normal;font-variant:normal;font-weight:bold;font-stretch:normal;font-size:3.54236px;line-height:1.25;font-family:sans-serif;-inkscape-font-specification:'sans-serif, Bold';font-variant-ligatures:normal;font-variant-caps:normal;font-variant-numeric:normal;font-feature-settings:normal;text-align:center;letter-spacing:0px;word-spacing:0px;writing-mode:lr-tb;text-anchor:middle;fill:#545137;fill-opacity:1;stroke:none;stroke-width:0.260161"
           id="path19334"
           inkscape:connector-curvature="0" />
        <path
           d="m -165.72011,150.42644 q 1.51294,0 2.39659,0.87027 0.88366,0.85686 0.88366,2.45008 v 0.96397 h -4.7127 q 0.0378,0.84348 0.4955,1.32544 0.48189,0.48201 1.32548,0.48201 0.69619,0 1.27181,-0.1338 0.58923,-0.1474 1.20492,-0.44179 v 1.53967 q -0.54879,0.26759 -1.13802,0.38827 -0.58923,0.13379 -1.43244,0.13379 -1.09795,0 -1.94154,-0.40165 -0.8436,-0.41503 -1.32549,-1.23175 -0.48189,-0.83006 -0.48189,-2.10198 0,-1.27189 0.4286,-2.12874 0.44183,-0.8569 1.21815,-1.28531 0.77669,-0.42844 1.80737,-0.42844 z m 0,1.41917 q -0.58886,0 -0.96378,0.37493 -0.37418,0.37493 -0.44183,1.16481 h 2.79798 q 0,-0.65605 -0.36283,-1.09787 -0.33638,-0.44183 -1.03068,-0.44183 z"
           style="font-style:normal;font-variant:normal;font-weight:bold;font-stretch:normal;font-size:3.54236px;line-height:1.25;font-family:sans-serif;-inkscape-font-specification:'sans-serif, Bold';font-variant-ligatures:normal;font-variant-caps:normal;font-variant-numeric:normal;font-feature-settings:normal;text-align:center;letter-spacing:0px;word-spacing:0px;writing-mode:lr-tb;text-anchor:middle;fill:#545137;fill-opacity:1;stroke:none;stroke-width:0.260161"
           id="path19336"
           inkscape:connector-curvature="0" />
        <path
           d="m -154.35885,158.00432 q -1.63352,0 -2.53078,-0.89704 -0.88365,-0.89703 -0.88365,-2.85173 0,-1.33886 0.45543,-2.18233 0.45506,-0.84344 1.25859,-1.24513 0.81675,-0.40165 1.87426,-0.40165 0.74986,0 1.29865,0.1474 0.56239,0.1474 0.97738,0.34809 l -0.58922,1.53967 q -0.46829,-0.18746 -0.88366,-0.30803 -0.40138,-0.12057 -0.80315,-0.12057 -1.553,0 -1.553,2.2091 0,1.09784 0.40176,1.61998 0.41499,0.52214 1.15124,0.52214 0.62929,0 1.11118,-0.16063 0.48189,-0.17424 0.93733,-0.46862 v 1.70033 q -0.45544,0.29443 -0.96416,0.41507 -0.49512,0.13379 -1.2582,0.13379 z"
           style="font-style:normal;font-variant:normal;font-weight:bold;font-stretch:normal;font-size:3.54236px;line-height:1.25;font-family:sans-serif;-inkscape-font-specification:'sans-serif, Bold';font-variant-ligatures:normal;font-variant-caps:normal;font-variant-numeric:normal;font-feature-settings:normal;text-align:center;letter-spacing:0px;word-spacing:0px;writing-mode:lr-tb;text-anchor:middle;fill:#545137;fill-opacity:1;stroke:none;stroke-width:0.260161"
           id="path19338"
           inkscape:connector-curvature="0" />
        <path
           d="m -146.37045,150.42644 q 0.14741,0 0.34772,0.0151 0.20032,0.0151 0.32126,0.0401 l -0.1474,1.87438 q -0.10583,-0.0265 -0.27969,-0.0401 -0.17385,-0.0265 -0.30992,-0.0265 -0.50872,0 -0.97738,0.18747 -0.46866,0.17423 -0.76309,0.57573 -0.27968,0.40165 -0.27968,1.09784 v 3.722 h -1.99484 v -7.31009 h 1.51257 l 0.2948,1.23171 h 0.0945 q 0.32126,-0.56228 0.88365,-0.96397 0.5624,-0.40165 1.29865,-0.40165 z"
           style="font-style:normal;font-variant:normal;font-weight:bold;font-stretch:normal;font-size:3.54236px;line-height:1.25;font-family:sans-serif;-inkscape-font-specification:'sans-serif, Bold';font-variant-ligatures:normal;font-variant-caps:normal;font-variant-numeric:normal;font-feature-settings:normal;text-align:center;letter-spacing:0px;word-spacing:0px;writing-mode:lr-tb;text-anchor:middle;fill:#545137;fill-opacity:1;stroke:none;stroke-width:0.260161"
           id="path19340"
           inkscape:connector-curvature="0" />
        <path
           d="m -143.38311,147.6952 q 0.44183,0 0.76309,0.2143 0.32126,0.20069 0.32126,0.76312 0,0.54894 -0.32126,0.76317 -0.32126,0.2143 -0.76309,0.2143 -0.45543,0 -0.77669,-0.2143 -0.30992,-0.2143 -0.30992,-0.76317 0,-0.56228 0.30992,-0.76312 0.32126,-0.2143 0.77669,-0.2143 z m 0.99062,2.86515 v 7.31009 h -1.99484 v -7.31009 z"
           style="font-style:normal;font-variant:normal;font-weight:bold;font-stretch:normal;font-size:3.54236px;line-height:1.25;font-family:sans-serif;-inkscape-font-specification:'sans-serif, Bold';font-variant-ligatures:normal;font-variant-caps:normal;font-variant-numeric:normal;font-feature-settings:normal;text-align:center;letter-spacing:0px;word-spacing:0px;writing-mode:lr-tb;text-anchor:middle;fill:#545137;fill-opacity:1;stroke:none;stroke-width:0.260161"
           id="path19342"
           inkscape:connector-curvature="0" />
        <path
           d="m -137.30903,150.41306 q 1.47251,0 2.2492,0.64263 0.78992,0.62929 0.78992,1.94136 v 4.87339 h -1.39238 l -0.38816,-0.99076 h -0.0529 q -0.46866,0.58911 -0.99099,0.85686 -0.52195,0.26759 -1.43244,0.26759 -0.97739,0 -1.61991,-0.56232 -0.64289,-0.56232 -0.64289,-1.75389 0,-1.16478 0.81675,-1.71371 0.81676,-0.54894 2.45027,-0.61588 l 1.27181,-0.0401 v -0.32126 q 0,-0.5757 -0.30992,-0.84348 -0.2948,-0.26759 -0.82999,-0.26759 -0.53555,0 -1.04428,0.16063 -0.50872,0.1474 -1.01745,0.37493 l -0.65612,-1.35224 q 0.57562,-0.29442 1.29864,-0.46862 0.72303,-0.18747 1.49934,-0.18747 z m 1.05751,4.0701 -0.77631,0.0265 q -0.96416,0.0265 -1.33909,0.3481 -0.37417,0.32126 -0.37417,0.84347 0,0.45521 0.26835,0.65606 0.26834,0.18746 0.69618,0.18746 0.6429,0 1.08473,-0.37493 0.44183,-0.38827 0.44183,-1.0845 z"
           style="font-style:normal;font-variant:normal;font-weight:bold;font-stretch:normal;font-size:3.54236px;line-height:1.25;font-family:sans-serif;-inkscape-font-specification:'sans-serif, Bold';font-variant-ligatures:normal;font-variant-caps:normal;font-variant-numeric:normal;font-feature-settings:normal;text-align:center;letter-spacing:0px;word-spacing:0px;writing-mode:lr-tb;text-anchor:middle;fill:#545137;fill-opacity:1;stroke:none;stroke-width:0.260161"
           id="path19344"
           inkscape:connector-curvature="0" />
        <path
           d="m -128.07753,150.42644 q 1.17808,0 1.88787,0.64267 0.70942,0.62925 0.70942,2.03505 v 4.76628 h -1.99483 v -4.27094 q 0,-0.78992 -0.27969,-1.17815 -0.27969,-0.40169 -0.89688,-0.40169 -0.91049,0 -1.24536,0.62929 -0.33637,0.61584 -0.33637,1.78065 v 3.44084 h -1.99484 v -7.31009 h 1.52617 l 0.26835,0.93717 h 0.10583 q 0.34771,-0.56232 0.95055,-0.81668 0.61606,-0.25436 1.29902,-0.25436 z"
           style="font-style:normal;font-variant:normal;font-weight:bold;font-stretch:normal;font-size:3.54236px;line-height:1.25;font-family:sans-serif;-inkscape-font-specification:'sans-serif, Bold';font-variant-ligatures:normal;font-variant-caps:normal;font-variant-numeric:normal;font-feature-settings:normal;text-align:center;letter-spacing:0px;word-spacing:0px;writing-mode:lr-tb;text-anchor:middle;fill:#545137;fill-opacity:1;stroke:none;stroke-width:0.260161"
           id="path19346"
           inkscape:connector-curvature="0" />
        <path
           d="m -120.46934,158.00432 q -1.63351,0 -2.53077,-0.89704 -0.88366,-0.89703 -0.88366,-2.85173 0,-1.33886 0.45544,-2.18233 0.45505,-0.84344 1.25858,-1.24513 0.81675,-0.40165 1.87427,-0.40165 0.74985,0 1.29864,0.1474 0.5624,0.1474 0.97739,0.34809 l -0.58923,1.53967 q -0.46828,-0.18746 -0.88365,-0.30803 -0.40139,-0.12057 -0.80315,-0.12057 -1.55301,0 -1.55301,2.2091 0,1.09784 0.40176,1.61998 0.41499,0.52214 1.15125,0.52214 0.62929,0 1.11118,-0.16063 0.48189,-0.17424 0.93732,-0.46862 v 1.70033 q -0.45543,0.29443 -0.96416,0.41507 -0.49512,0.13379 -1.2582,0.13379 z m 1.43244,1.49949 q 0,0.74978 -0.44183,1.16481 -0.44183,0.41503 -1.57984,0.41503 -0.2948,0 -0.53556,-0.0401 -0.22677,-0.0401 -0.41499,-0.0937 v -1.09784 q 0.18897,0.0537 0.45505,0.0937 0.27969,0.0401 0.48189,0.0401 0.18898,0 0.32126,-0.0937 0.1474,-0.0805 0.1474,-0.30804 0,-0.24113 -0.24189,-0.42844 -0.24189,-0.18747 -0.84321,-0.2812 l 0.50873,-1.00411 h 1.25858 l -0.17386,0.40165 q 0.40139,0.1338 0.72302,0.42841 0.33638,0.30803 0.33638,0.8033 z"
           style="font-style:normal;font-variant:normal;font-weight:bold;font-stretch:normal;font-size:3.54236px;line-height:1.25;font-family:sans-serif;-inkscape-font-specification:'sans-serif, Bold';font-variant-ligatures:normal;font-variant-caps:normal;font-variant-numeric:normal;font-feature-settings:normal;text-align:center;letter-spacing:0px;word-spacing:0px;writing-mode:lr-tb;text-anchor:middle;fill:#545137;fill-opacity:1;stroke:none;stroke-width:0.260161"
           id="path19348"
           inkscape:connector-curvature="0" />
        <path
           d="m -113.56566,150.41306 q 1.47288,0 2.24958,0.64263 0.78992,0.62929 0.78992,1.94136 v 4.87339 h -1.39238 l -0.38853,-0.99076 h -0.0529 q -0.46866,0.58911 -0.99061,0.85686 -0.52233,0.26759 -1.43244,0.26759 -0.97739,0 -1.62029,-0.56232 -0.64252,-0.56232 -0.64252,-1.75389 0,-1.16478 0.81676,-1.71371 0.81676,-0.54894 2.44989,-0.61588 l 1.27219,-0.0401 v -0.32126 q 0,-0.5757 -0.30992,-0.84348 -0.29481,-0.26759 -0.83037,-0.26759 -0.53555,0 -1.04428,0.16063 -0.50872,0.1474 -1.01745,0.37493 l -0.65612,-1.35224 q 0.576,-0.29442 1.29902,-0.46862 0.72265,-0.18747 1.49934,-0.18747 z m 1.05789,4.0701 -0.77669,0.0265 q -0.96378,0.0265 -1.33871,0.3481 -0.37417,0.32126 -0.37417,0.84347 0,0.45521 0.26834,0.65606 0.26835,0.18746 0.69619,0.18746 0.64252,0 1.08435,-0.37493 0.44183,-0.38827 0.44183,-1.0845 z"
           style="font-style:normal;font-variant:normal;font-weight:bold;font-stretch:normal;font-size:3.54236px;line-height:1.25;font-family:sans-serif;-inkscape-font-specification:'sans-serif, Bold';font-variant-ligatures:normal;font-variant-caps:normal;font-variant-numeric:normal;font-feature-settings:normal;text-align:center;letter-spacing:0px;word-spacing:0px;writing-mode:lr-tb;text-anchor:middle;fill:#545137;fill-opacity:1;stroke:none;stroke-width:0.260161"
           id="path19350"
           inkscape:connector-curvature="0" />
        <path
           d="m -103.38323,155.70149 q 0,1.11125 -0.78992,1.71375 -0.7767,0.58908 -2.3297,0.58908 -0.76309,0 -1.31226,-0.10697 -0.54878,-0.0937 -1.09757,-0.32126 v -1.64677 q 0.58885,0.26759 1.27181,0.44182 0.68296,0.17386 1.20491,0.17386 0.57563,0 0.82999,-0.17386 0.25323,-0.17423 0.25323,-0.4552 0,-0.18747 -0.10583,-0.33487 -0.0945,-0.1474 -0.42822,-0.33486 -0.33638,-0.18747 -1.04428,-0.48197 -0.69619,-0.29443 -1.13802,-0.5757 -0.4286,-0.29442 -0.6429,-0.69622 -0.21543,-0.41503 -0.21543,-1.03091 0,-1.01752 0.78992,-1.52629 0.78992,-0.50876 2.10217,-0.50876 0.68296,0 1.29865,0.1338 0.61606,0.13379 1.27181,0.44182 l -0.60246,1.43256 q -0.53556,-0.22753 -1.01745,-0.37493 -0.48189,-0.16063 -0.97738,-0.16063 -0.88365,0 -0.88365,0.482 0,0.17386 0.10582,0.32126 0.12095,0.1338 0.44183,0.29443 0.33638,0.16063 0.97738,0.42841 0.6293,0.25436 1.08435,0.53556 0.45543,0.26759 0.69619,0.68281 0.25323,0.41503 0.25323,1.05766 z"
           style="font-style:normal;font-variant:normal;font-weight:bold;font-stretch:normal;font-size:3.54236px;line-height:1.25;font-family:sans-serif;-inkscape-font-specification:'sans-serif, Bold';font-variant-ligatures:normal;font-variant-caps:normal;font-variant-numeric:normal;font-feature-settings:normal;text-align:center;letter-spacing:0px;word-spacing:0px;writing-mode:lr-tb;text-anchor:middle;fill:#545137;fill-opacity:1;stroke:none;stroke-width:0.260161"
           id="path19352"
           inkscape:connector-curvature="0" />
        <path
           d="m -209.16692,167.162 q 1.51257,0 2.39622,0.87027 0.88366,0.85686 0.88366,2.45008 v 0.96397 h -4.7127 q 0.0378,0.84348 0.4955,1.32544 0.48189,0.482 1.32548,0.482 0.69619,0 1.27181,-0.13379 0.58923,-0.1474 1.20491,-0.44179 v 1.53967 q -0.54878,0.26796 -1.13801,0.38827 -0.58885,0.13379 -1.43244,0.13379 -1.09796,0 -1.94117,-0.40165 -0.84359,-0.41503 -1.32548,-1.23175 -0.48227,-0.83006 -0.48227,-2.10198 0,-1.27189 0.4286,-2.12874 0.44183,-0.85686 1.21814,-1.28531 0.7767,-0.42844 1.80775,-0.42844 z m 0,1.41917 q -0.58923,0 -0.96416,0.37493 -0.37417,0.37493 -0.44182,1.16481 h 2.79836 q 0,-0.65605 -0.36284,-1.09787 -0.33637,-0.44183 -1.03105,-0.44183 z"
           style="font-style:normal;font-variant:normal;font-weight:bold;font-stretch:normal;font-size:3.54236px;line-height:1.25;font-family:sans-serif;-inkscape-font-specification:'sans-serif, Bold';font-variant-ligatures:normal;font-variant-caps:normal;font-variant-numeric:normal;font-feature-settings:normal;text-align:center;letter-spacing:0px;word-spacing:0px;writing-mode:lr-tb;text-anchor:middle;fill:#545137;fill-opacity:1;stroke:none;stroke-width:0.260161"
           id="path19354"
           inkscape:connector-curvature="0" />
        <path
           d="m -197.7792,167.14862 q 1.4725,0 2.2492,0.64267 0.78992,0.62925 0.78992,1.94132 v 4.87339 h -1.39238 l -0.38854,-0.99076 h -0.0529 q -0.46828,0.58911 -0.99061,0.85686 -0.52196,0.26759 -1.43245,0.26759 -0.97738,0 -1.62028,-0.56232 -0.64252,-0.56232 -0.64252,-1.75389 0,-1.16478 0.81676,-1.71372 0.81675,-0.54893 2.45026,-0.61587 l 1.27182,-0.0401 v -0.32126 q 0,-0.5757 -0.30993,-0.84348 -0.2948,-0.26759 -0.83036,-0.26759 -0.53518,0 -1.04428,0.16063 -0.50873,0.1474 -1.01745,0.37493 l -0.65613,-1.35224 q 0.576,-0.29443 1.29903,-0.46862 0.72264,-0.18747 1.49934,-0.18747 z m 1.05751,4.0701 -0.77669,0.0265 q -0.96378,0.0265 -1.33871,0.3481 -0.37417,0.32126 -0.37417,0.84344 0,0.4552 0.26834,0.65605 0.26835,0.18746 0.69619,0.18746 0.6429,0 1.08435,-0.37493 0.44182,-0.38827 0.44182,-1.08446 z"
           style="font-style:normal;font-variant:normal;font-weight:bold;font-stretch:normal;font-size:3.54236px;line-height:1.25;font-family:sans-serif;-inkscape-font-specification:'sans-serif, Bold';font-variant-ligatures:normal;font-variant-caps:normal;font-variant-numeric:normal;font-feature-settings:normal;text-align:center;letter-spacing:0px;word-spacing:0px;writing-mode:lr-tb;text-anchor:middle;fill:#545137;fill-opacity:1;stroke:none;stroke-width:0.260161"
           id="path19356"
           inkscape:connector-curvature="0" />
        <path
           d="m -190.38191,174.73987 q -1.21852,0 -1.99483,-0.95058 -0.76347,-0.96397 -0.76347,-2.82497 0,-1.87439 0.77669,-2.83835 0.7767,-0.96397 2.0349,-0.96397 0.78992,0 1.29865,0.30803 0.5091,0.30803 0.80352,0.76312 h 0.068 q -0.0416,-0.2143 -0.0945,-0.61587 -0.0529,-0.41503 -0.0529,-0.84344 v -2.343 h 1.99484 v 10.17524 h -1.52617 l -0.38854,-0.95059 h -0.0794 q -0.2948,0.45521 -0.78992,0.77654 -0.49512,0.30803 -1.28504,0.30803 z m 0.69619,-1.59322 q 0.81675,0 1.15124,-0.482 0.33638,-0.49535 0.36284,-1.47273 v -0.2143 q 0,-1.0577 -0.33638,-1.62002 -0.32126,-0.5757 -1.20491,-0.5757 -0.65613,0 -1.03106,0.5757 -0.37417,0.56232 -0.37417,1.6334 0,1.07108 0.37417,1.61998 0.37417,0.53556 1.05789,0.53556 z"
           style="font-style:normal;font-variant:normal;font-weight:bold;font-stretch:normal;font-size:3.54236px;line-height:1.25;font-family:sans-serif;-inkscape-font-specification:'sans-serif, Bold';font-variant-ligatures:normal;font-variant-caps:normal;font-variant-numeric:normal;font-feature-settings:normal;text-align:center;letter-spacing:0px;word-spacing:0px;writing-mode:lr-tb;text-anchor:middle;fill:#545137;fill-opacity:1;stroke:none;stroke-width:0.260161"
           id="path19358"
           inkscape:connector-curvature="0" />
        <path
           d="m -177.58519,170.93756 q 0,1.82082 -0.96378,2.81159 -0.95092,0.99072 -2.59766,0.99072 -1.01745,0 -1.8206,-0.44182 -0.78992,-0.44183 -1.24536,-1.28527 -0.45505,-0.85689 -0.45505,-2.07522 0,-1.82083 0.95055,-2.79818 0.95055,-0.97738 2.6109,-0.97738 1.03067,0 1.82059,0.44182 0.78993,0.44183 1.24536,1.28531 0.45505,0.84348 0.45505,2.04843 z m -5.04755,0 q 0,1.08446 0.34771,1.64677 0.36284,0.54894 1.16485,0.54894 0.78992,0 1.13802,-0.54894 0.36283,-0.56231 0.36283,-1.64677 0,-1.08446 -0.36283,-1.62002 -0.34772,-0.5489 -1.15125,-0.5489 -0.78992,0 -1.15162,0.5489 -0.34771,0.53556 -0.34771,1.62002 z"
           style="font-style:normal;font-variant:normal;font-weight:bold;font-stretch:normal;font-size:3.54236px;line-height:1.25;font-family:sans-serif;-inkscape-font-specification:'sans-serif, Bold';font-variant-ligatures:normal;font-variant-caps:normal;font-variant-numeric:normal;font-feature-settings:normal;text-align:center;letter-spacing:0px;word-spacing:0px;writing-mode:lr-tb;text-anchor:middle;fill:#545137;fill-opacity:1;stroke:none;stroke-width:0.260161"
           id="path19360"
           inkscape:connector-curvature="0" />
        <path
           d="m -173.94172,174.606 h -1.99484 v -10.17524 h 1.99484 z"
           style="font-style:normal;font-variant:normal;font-weight:bold;font-stretch:normal;font-size:3.54236px;line-height:1.25;font-family:sans-serif;-inkscape-font-specification:'sans-serif, Bold';font-variant-ligatures:normal;font-variant-caps:normal;font-variant-numeric:normal;font-feature-settings:normal;text-align:center;letter-spacing:0px;word-spacing:0px;writing-mode:lr-tb;text-anchor:middle;fill:#545137;fill-opacity:1;stroke:none;stroke-width:0.260161"
           id="path19362"
           inkscape:connector-curvature="0" />
        <path
           d="m -168.84465,167.162 q 1.51257,0 2.39622,0.87027 0.88365,0.85686 0.88365,2.45008 v 0.96397 h -4.71269 q 0.0378,0.84348 0.4955,1.32544 0.48189,0.482 1.32548,0.482 0.69619,0 1.27181,-0.13379 0.58923,-0.1474 1.20491,-0.44179 v 1.53967 q -0.54879,0.26796 -1.13801,0.38827 -0.58885,0.13379 -1.43245,0.13379 -1.09795,0 -1.94154,-0.40165 -0.84321,-0.41503 -1.3251,-1.23175 -0.48227,-0.83006 -0.48227,-2.10198 0,-1.27189 0.4286,-2.12874 0.44183,-0.85686 1.21814,-1.28531 0.77669,-0.42844 1.80775,-0.42844 z m 0,1.41917 q -0.58923,0 -0.96416,0.37493 -0.37417,0.37493 -0.44182,1.16481 h 2.79836 q 0,-0.65605 -0.36284,-1.09787 -0.33637,-0.44183 -1.03105,-0.44183 z"
           style="font-style:normal;font-variant:normal;font-weight:bold;font-stretch:normal;font-size:3.54236px;line-height:1.25;font-family:sans-serif;-inkscape-font-specification:'sans-serif, Bold';font-variant-ligatures:normal;font-variant-caps:normal;font-variant-numeric:normal;font-feature-settings:normal;text-align:center;letter-spacing:0px;word-spacing:0px;writing-mode:lr-tb;text-anchor:middle;fill:#545137;fill-opacity:1;stroke:none;stroke-width:0.260161"
           id="path19364"
           inkscape:connector-curvature="0" />
        <path
           d="m -158.83306,172.43705 q 0,1.11125 -0.78992,1.71375 -0.77632,0.58907 -2.32932,0.58907 -0.76347,0 -1.31226,-0.10696 -0.54878,-0.0937 -1.09795,-0.32126 v -1.64677 q 0.58923,0.26759 1.27181,0.44182 0.68296,0.17386 1.20529,0.17386 0.57563,0 0.82999,-0.17386 0.25323,-0.17423 0.25323,-0.4552 0,-0.18747 -0.10583,-0.33487 -0.0945,-0.1474 -0.4286,-0.33487 -0.33638,-0.18746 -1.04428,-0.48196 -0.69619,-0.29443 -1.13802,-0.5757 -0.42822,-0.29442 -0.64252,-0.69623 -0.21543,-0.41503 -0.21543,-1.0309 0,-1.01752 0.78992,-1.52629 0.78992,-0.50876 2.1018,-0.50876 0.68296,0 1.29902,0.1338 0.61568,0.13379 1.27181,0.44182 l -0.60246,1.43256 q -0.53556,-0.22753 -1.01744,-0.37493 -0.48227,-0.16063 -0.97739,-0.16063 -0.88365,0 -0.88365,0.482 0,0.17424 0.10582,0.32126 0.12095,0.1338 0.44145,0.29443 0.33638,0.16063 0.97777,0.42841 0.62891,0.25436 1.08434,0.53556 0.45506,0.26759 0.69619,0.68281 0.25323,0.41503 0.25323,1.05766 z"
           style="font-style:normal;font-variant:normal;font-weight:bold;font-stretch:normal;font-size:3.54236px;line-height:1.25;font-family:sans-serif;-inkscape-font-specification:'sans-serif, Bold';font-variant-ligatures:normal;font-variant-caps:normal;font-variant-numeric:normal;font-feature-settings:normal;text-align:center;letter-spacing:0px;word-spacing:0px;writing-mode:lr-tb;text-anchor:middle;fill:#545137;fill-opacity:1;stroke:none;stroke-width:0.260161"
           id="path19366"
           inkscape:connector-curvature="0" />
        <path
           d="m -154.31993,174.73987 q -1.63313,0 -2.53039,-0.89703 -0.88365,-0.89703 -0.88365,-2.85173 0,-1.33886 0.45543,-2.18233 0.45506,-0.84344 1.2582,-1.24509 0.81676,-0.40169 1.87465,-0.40169 0.74986,0 1.29865,0.1474 0.56239,0.1474 0.97738,0.34809 l -0.58923,1.53967 q -0.46866,-0.18746 -0.88365,-0.30803 -0.40176,-0.12057 -0.80315,-0.12057 -1.55301,0 -1.55301,2.2091 0,1.09784 0.40139,1.61998 0.41499,0.52214 1.15162,0.52214 0.62929,0 1.11118,-0.16063 0.48189,-0.17386 0.93732,-0.46862 v 1.70033 q -0.45543,0.29443 -0.96415,0.41507 -0.4955,0.13379 -1.25859,0.13379 z"
           style="font-style:normal;font-variant:normal;font-weight:bold;font-stretch:normal;font-size:3.54236px;line-height:1.25;font-family:sans-serif;-inkscape-font-specification:'sans-serif, Bold';font-variant-ligatures:normal;font-variant-caps:normal;font-variant-numeric:normal;font-feature-settings:normal;text-align:center;letter-spacing:0px;word-spacing:0px;writing-mode:lr-tb;text-anchor:middle;fill:#545137;fill-opacity:1;stroke:none;stroke-width:0.260161"
           id="path19368"
           inkscape:connector-curvature="0" />
        <path
           d="m -147.40226,167.162 q 1.51295,0 2.39622,0.87027 0.88366,0.85686 0.88366,2.45008 v 0.96397 h -4.7127 q 0.0378,0.84348 0.4955,1.32544 0.48189,0.482 1.32548,0.482 0.69619,0 1.27181,-0.13379 0.58923,-0.1474 1.20492,-0.44179 v 1.53967 q -0.54879,0.26796 -1.13802,0.38827 -0.58885,0.13379 -1.43244,0.13379 -1.09795,0 -1.94117,-0.40165 -0.84359,-0.41503 -1.32548,-1.23175 -0.48226,-0.83006 -0.48226,-2.10198 0,-1.27189 0.42859,-2.12874 0.44183,-0.85686 1.21815,-1.28531 0.77669,-0.42844 1.80774,-0.42844 z m 0,1.41917 q -0.58922,0 -0.96415,0.37493 -0.37418,0.37493 -0.44183,1.16481 h 2.79836 q 0,-0.65605 -0.36283,-1.09787 -0.33638,-0.44183 -1.03106,-0.44183 z"
           style="font-style:normal;font-variant:normal;font-weight:bold;font-stretch:normal;font-size:3.54236px;line-height:1.25;font-family:sans-serif;-inkscape-font-specification:'sans-serif, Bold';font-variant-ligatures:normal;font-variant-caps:normal;font-variant-numeric:normal;font-feature-settings:normal;text-align:center;letter-spacing:0px;word-spacing:0px;writing-mode:lr-tb;text-anchor:middle;fill:#545137;fill-opacity:1;stroke:none;stroke-width:0.260161"
           id="path19370"
           inkscape:connector-curvature="0" />
        <path
           d="m -138.34122,167.162 q 1.17846,0 1.88788,0.64267 0.70941,0.62925 0.70941,2.03505 v 4.76628 h -1.99483 v -4.27094 q 0,-0.78992 -0.27969,-1.17815 -0.27968,-0.40165 -0.89688,-0.40165 -0.91049,0 -1.24497,0.62925 -0.33638,0.61584 -0.33638,1.78065 v 3.44084 h -1.99521 v -7.31009 h 1.52655 l 0.26834,0.93717 h 0.10583 q 0.34772,-0.56232 0.95055,-0.81668 0.61569,-0.25436 1.29865,-0.25436 z"
           style="font-style:normal;font-variant:normal;font-weight:bold;font-stretch:normal;font-size:3.54236px;line-height:1.25;font-family:sans-serif;-inkscape-font-specification:'sans-serif, Bold';font-variant-ligatures:normal;font-variant-caps:normal;font-variant-numeric:normal;font-feature-settings:normal;text-align:center;letter-spacing:0px;word-spacing:0px;writing-mode:lr-tb;text-anchor:middle;fill:#545137;fill-opacity:1;stroke:none;stroke-width:0.260161"
           id="path19372"
           inkscape:connector-curvature="0" />
        <path
           d="m -130.62607,173.14665 q 0.33638,0 0.64252,-0.0537 0.30992,-0.0669 0.61607,-0.17423 v 1.48611 q -0.32126,0.1474 -0.80315,0.24113 -0.46867,0.0937 -1.03106,0.0937 -0.65613,0 -1.17808,-0.2143 -0.50872,-0.21429 -0.81675,-0.73636 -0.29481,-0.52214 -0.29481,-1.47273 v -3.52116 h -0.95055 v -0.84348 l 1.09758,-0.66939 0.576,-1.5397 h 1.27181 v 1.55308 h 2.0485 v 1.49949 h -2.0485 v 3.52116 q 0,0.41507 0.24189,0.62925 0.24189,0.20069 0.62929,0.20069 z"
           style="font-style:normal;font-variant:normal;font-weight:bold;font-stretch:normal;font-size:3.54236px;line-height:1.25;font-family:sans-serif;-inkscape-font-specification:'sans-serif, Bold';font-variant-ligatures:normal;font-variant-caps:normal;font-variant-numeric:normal;font-feature-settings:normal;text-align:center;letter-spacing:0px;word-spacing:0px;writing-mode:lr-tb;text-anchor:middle;fill:#545137;fill-opacity:1;stroke:none;stroke-width:0.260161"
           id="path19374"
           inkscape:connector-curvature="0" />
        <path
           d="m -124.88799,167.162 q 1.51295,0 2.3966,0.87027 0.88365,0.85686 0.88365,2.45008 v 0.96397 h -4.71269 q 0.0378,0.84348 0.4955,1.32544 0.48189,0.482 1.32548,0.482 0.69619,0 1.27181,-0.13379 0.58923,-0.1474 1.20491,-0.44179 v 1.53967 q -0.54879,0.26796 -1.13801,0.38827 -0.58923,0.13379 -1.43245,0.13379 -1.09795,0 -1.94154,-0.40165 -0.84321,-0.41503 -1.32548,-1.23175 -0.48189,-0.83006 -0.48189,-2.10198 0,-1.27189 0.4286,-2.12874 0.44183,-0.85686 1.21814,-1.28531 0.77669,-0.42844 1.80737,-0.42844 z m 0,1.41917 q -0.58885,0 -0.96378,0.37493 -0.37417,0.37493 -0.44182,1.16481 h 2.79836 q 0,-0.65605 -0.36284,-1.09787 -0.33638,-0.44183 -1.03105,-0.44183 z"
           style="font-style:normal;font-variant:normal;font-weight:bold;font-stretch:normal;font-size:3.54236px;line-height:1.25;font-family:sans-serif;-inkscape-font-specification:'sans-serif, Bold';font-variant-ligatures:normal;font-variant-caps:normal;font-variant-numeric:normal;font-feature-settings:normal;text-align:center;letter-spacing:0px;word-spacing:0px;writing-mode:lr-tb;text-anchor:middle;fill:#545137;fill-opacity:1;stroke:none;stroke-width:0.260161"
           id="path19376"
           inkscape:connector-curvature="0" />
        <path
           d="m -114.87602,172.43705 q 0,1.11125 -0.78992,1.71375 -0.77632,0.58907 -2.3297,0.58907 -0.76309,0 -1.31188,-0.10696 -0.54878,-0.0937 -1.09795,-0.32126 v -1.64677 q 0.58923,0.26759 1.27181,0.44182 0.68296,0.17386 1.20492,0.17386 0.576,0 0.83036,-0.17386 0.25323,-0.17423 0.25323,-0.4552 0,-0.18747 -0.10583,-0.33487 -0.0945,-0.1474 -0.4286,-0.33487 -0.33638,-0.18746 -1.04428,-0.48196 -0.69619,-0.29443 -1.13802,-0.5757 -0.42822,-0.29442 -0.64252,-0.69623 -0.21543,-0.41503 -0.21543,-1.0309 0,-1.01752 0.78992,-1.52629 0.78992,-0.50876 2.1018,-0.50876 0.68296,0 1.29864,0.1338 0.61606,0.13379 1.27219,0.44182 l -0.60246,1.43256 q -0.53556,-0.22753 -1.01782,-0.37493 -0.48189,-0.16063 -0.97739,-0.16063 -0.88327,0 -0.88327,0.482 0,0.17424 0.10582,0.32126 0.12095,0.1338 0.44145,0.29443 0.33638,0.16063 0.97739,0.42841 0.62929,0.25436 1.08472,0.53556 0.45506,0.26759 0.69619,0.68281 0.25323,0.41503 0.25323,1.05766 z"
           style="font-style:normal;font-variant:normal;font-weight:bold;font-stretch:normal;font-size:3.54236px;line-height:1.25;font-family:sans-serif;-inkscape-font-specification:'sans-serif, Bold';font-variant-ligatures:normal;font-variant-caps:normal;font-variant-numeric:normal;font-feature-settings:normal;text-align:center;letter-spacing:0px;word-spacing:0px;writing-mode:lr-tb;text-anchor:middle;fill:#545137;fill-opacity:1;stroke:none;stroke-width:0.260161"
           id="path19378"
           inkscape:connector-curvature="0" />
      </g>
      <g
         id="g14860"
         transform="matrix(0.63500425,0,0,0.63500425,-607.15932,171.25071)"
         style="fill:#2f2d16;fill-opacity:1">
        <path
           sodipodi:nodetypes="ccscccccsscccccccccccscccscccccscssccccccscscccccccccccccccscscccccscccccccccsccccsccccccccccc"
           inkscape:connector-curvature="0"
           id="path14856"
           d="m 963.41376,-116.55519 c -0.53395,-0.13182 -1.31452,-0.51447 -1.73459,-0.85033 -0.83054,-0.66403 -1.74177,-2.36169 -1.74177,-3.24497 0,-1.00801 0.85113,-2.56179 2.21197,-4.03807 4.17584,-4.53007 6.62941,-8.97369 7.47838,-13.54396 0.1631,-0.87803 0.28898,-1.80168 0.27975,-2.05254 -0.0648,-1.76202 1.2e-4,-1.87753 1.14782,-2.04134 2.00991,-0.28687 2.44662,-0.37238 4.27612,-0.83726 1.0035,-0.25498 2.18369,-0.55456 2.62269,-0.66571 1.88467,-0.47718 5.18822,-1.10777 5.86158,-1.11888 0.61639,-0.0102 0.84214,0.15059 1.44766,1.03059 0.80689,1.17286 2.51908,4.69812 3.03815,6.25529 0.49839,1.49517 1.43318,5.35227 1.71987,7.09616 0.34556,2.10228 0.30936,6.33466 -0.0758,8.88792 -0.38116,2.5249 -0.56708,3.06988 -1.37474,4.0297 -1.78951,2.1268 -5.28269,1.83317 -6.77664,-0.56964 -0.4908,-0.78946 -0.52407,-1.03757 -0.42055,-3.13784 0.18498,-3.75335 0.0957,-8.93708 -0.16972,-9.85733 -0.13671,-0.47382 -0.43003,-1.52857 -0.6519,-2.34389 -0.22178,-0.81531 -0.74956,-2.25209 -1.17287,-3.19284 -0.85705,-1.90489 -1.03211,-1.87451 -1.31406,0.22806 -0.69801,5.20468 -4.9083,12.87541 -9.84155,17.9303 -2.02775,2.07774 -2.99092,2.48559 -4.80958,2.03658 z m 4.27768,-26.84136 c -1.0411,-0.23975 -6.05876,-0.30851 -7.01285,-0.0961 l -0.74119,0.16501 -0.002,-1.67155 c -0.003,-3.18929 0.85518,-10.02835 1.61102,-12.8465 0.65481,-2.44148 0.79321,-2.83399 1.64856,-4.67524 1.60343,-3.45163 1.96488,-4.30725 2.51632,-5.95659 1.2757,-3.81563 1.50379,-5.95577 0.95788,-8.98771 -0.55067,-3.05836 -0.41236,-4.61615 0.59731,-6.72764 0.9579,-2.00323 2.16754,-3.38171 3.68221,-4.19618 0.87164,-0.4687 1.40902,-0.58686 2.66899,-0.58686 1.53084,0 1.82554,0.072 3.76891,0.92045 1.06521,0.46512 2.83749,2.27421 3.47905,3.55135 1.08382,2.15769 1.46705,3.87722 1.38129,6.19764 -0.0578,1.56018 -0.20662,2.46905 -0.50322,3.07119 -0.51726,1.05 -0.8461,1.07977 -1.25932,0.11403 -0.17437,-0.40766 -0.60975,-1.34138 -0.96738,-2.07494 -0.68008,-1.39479 -1.79167,-4.78963 -1.79167,-5.47191 0,-0.7121 -0.85377,-2.07992 -1.55282,-2.4878 -0.40693,-0.23742 -1.15166,-0.3991 -1.8383,-0.3991 -2.17011,0 -3.49937,1.88729 -3.00058,4.26027 0.65226,3.10314 1.70777,5.924 3.69524,9.87561 l 1.77598,3.53109 -0.23894,1.48623 c -0.13145,0.81743 -0.33452,2.04052 -0.45132,2.71797 -0.20937,1.21481 -0.20049,1.24582 0.64225,2.25743 1.49765,1.79774 2.53157,3.19663 4.38384,5.93137 1.86648,2.75572 5.02333,8.62192 5.02238,9.33288 -4.3e-4,0.35354 -0.25549,0.40817 -2.0544,0.44007 -2.20558,0.0391 -3.08176,0.21101 -8.6639,1.69967 -2.61869,0.69837 -6.18812,0.98647 -7.75403,0.62586 z m 21.51928,-11.8967 c -0.23299,-0.12649 -0.76206,-0.52268 -1.17554,-0.88042 -0.74896,-0.64804 -1.34087,-0.63468 -1.75762,0.0396 -0.0767,0.12476 -0.5851,0.22683 -1.12883,0.22683 -1.79563,0 -3.05021,-1.7252 -2.30401,-3.16828 0.20161,-0.3898 0.46649,-0.70873 0.58871,-0.70873 0.49727,0 0.158,-0.67866 -0.97789,-1.95667 -2.31945,-2.60951 -5.05367,-6.42175 -6.62424,-9.23599 -1.85391,-3.32187 -4.03421,-9.44975 -4.03461,-11.33962 -4.6e-4,-2.09199 2.03667,-3.39192 3.84782,-2.45536 0.95833,0.49559 1.14408,0.82413 1.75314,3.09992 1.58032,5.9051 3.75702,10.16153 7.64015,14.93991 1.81141,2.22903 1.90381,2.29345 2.47382,1.72348 0.76111,-0.76115 1.46025,-0.81024 2.46909,-0.17337 1.28975,0.81417 1.57781,1.63913 1.0877,3.11474 l -0.38633,1.16298 1.03875,1.11043 c 0.57122,0.61075 1.10796,1.3867 1.1927,1.72435 0.18902,0.75307 -0.3622,2.00152 -1.09573,2.48171 -0.66526,0.43553 -2.05741,0.59276 -2.60708,0.29444 z m -1.6847,-3.29364 c 1.72943,-1.77953 2.80042,-3.51455 2.80042,-4.5368 0,-0.83571 -0.70422,-1.48448 -1.52386,-1.40383 -0.5951,0.0585 -0.7805,0.25333 -1.32552,1.39296 -0.40236,0.84128 -1.21545,1.89863 -2.22756,2.89676 -1.67065,1.64763 -1.90907,2.23591 -1.2164,3.00132 0.2092,0.23119 0.68888,0.41706 1.07633,0.41706 0.57191,0 1.01091,-0.32109 2.41659,-1.76747 z m -3.41422,-28.42594 c -3.60377,-0.92468 -6.01321,-3.46005 -6.67614,-7.025 -0.59303,-3.18885 1.0653,-6.81451 3.96364,-8.66573 0.92203,-0.58894 3.37121,-1.32451 4.40358,-1.32258 1.13709,0.002 3.49998,0.69781 4.51623,1.32966 1.26079,0.78392 2.63165,2.3624 3.30027,3.79995 0.55726,1.1982 0.63587,1.63779 0.63234,3.53493 0,1.89111 -0.0836,2.32966 -0.62785,3.44919 -0.91782,1.88743 -2.21645,3.24096 -3.86796,4.03153 -2.50218,1.19778 -3.66324,1.37634 -5.64411,0.86805 z"
           style="fill:#2f2d16;fill-opacity:1;stroke-width:0.22806" />
        <path
           sodipodi:nodetypes="ccccccccccccccccccccccccccscsccccccccccscscccccccccccscccccccccccccccccccsscccsccccccccccccccccccccccccccccscccccccccscccccccccccccccsccccccccccsccccsccccsccccccccccccccccccccccccccccccc"
           style="fill:#2f2d16;fill-opacity:1;stroke-width:0.264583"
           d="m 1128.7497,-112.44892 c -0.35,-0.066 -1.2517,-0.73533 -2.0037,-1.48736 -1.2825,-1.28254 -1.4422,-1.59691 -2.575,-5.06945 -1.0434,-3.19831 -1.8636,-6.44358 -2.8414,-11.24275 -0.2176,-1.06825 -0.4492,-2.87252 -0.7133,-5.55625 -0.1184,-1.20367 -0.1184,-10.96717 0,-12.17084 0.2824,-2.87046 0.488,-4.48131 0.6922,-5.42395 0.1262,-0.58209 0.3743,-1.77271 0.5514,-2.64584 0.551,-2.71552 1.2235,-5.20191 2.0465,-7.56587 1.1162,-3.2063 1.4804,-6.29343 1.2816,-10.86332 -0.091,-2.0877 -0.2689,-4.56971 -0.3958,-5.5156 l -0.2308,-1.71979 2.2916,-2.15384 c 2.8283,-2.65823 4.1604,-4.36789 5.5537,-7.12812 1.4872,-2.94624 2.0225,-5.19095 1.6068,-6.73757 -0.4417,-1.64295 -1.9781,-3.0703 -3.5604,-3.30757 -2.793,-0.41884 -4.7424,0.84711 -5.6902,3.69541 -1.7073,5.13039 -5.9957,8.53642 -12.0456,9.56711 -1.4589,0.24854 -6.6522,0.33349 -7.0064,0.1146 -0.1988,-0.12287 -0.1259,-0.55937 0.2337,-1.39812 l 0.5227,-1.21948 -1.1083,-0.63092 c -1.1017,-0.62712 -3.2341,-1.65118 -4.8792,-2.34314 -1.1329,-0.47655 -0.9424,-0.91358 0.3559,-0.81645 0.5685,0.0425 2.6854,0.14109 4.7042,0.21901 3.9994,0.15436 5.8152,-0.13903 8.5737,-1.3853 0.7679,-0.34696 1.4628,-0.63083 1.5442,-0.63083 0.5305,0 5.3171,-3.81122 6.4332,-5.12237 0.3543,-0.41622 0.7714,-0.89247 0.9269,-1.05834 0.1555,-0.16587 0.6093,-0.73902 1.0085,-1.27368 0.9813,-1.31443 3.1742,-2.33555 5.0125,-2.33404 1.7326,0.001 4.4246,0.91602 6.1108,2.07618 1.4986,1.03108 3.175,3.07285 3.918,4.77202 0.2935,0.67124 0.6429,1.45856 0.7765,1.7496 0.3068,0.66858 1.9635,6.44442 2.3526,8.20209 1.1121,5.02272 1.3814,11.8784 0.6937,17.6599 -0.59,4.95997 -2.3523,7.97662 -5.5336,9.47201 -1.1527,0.54179 -1.2373,0.65871 -1.7814,2.46116 -0.3142,1.04079 -0.6628,2.13047 -0.7746,2.42151 -0.6271,1.63201 -1.5219,7.27072 -1.8235,11.49108 -0.2446,3.42273 0.043,9.95377 0.5144,11.69066 0.1429,0.52621 0.2599,1.29251 0.2599,1.70289 0,1.28242 1.1225,5.74103 2.5322,10.05767 1.0784,3.30194 1.0763,4.74429 -0.01,6.59729 -1.4844,2.53325 -4.0516,3.50577 -7.5247,2.8506 z m -60.4714,-3.74483 c -2.1655,-0.74812 -3.5682,-2.14659 -4.1452,-4.13286 -0.2114,-0.7276 -0.5151,-2.6326 -0.675,-4.23333 -0.469,-4.69745 -1.4189,-9.881 -2.7393,-14.94896 -0.6429,-2.46772 -2.7176,-8.29866 -2.9844,-8.38758 -0.1389,-0.0463 -0.4124,0.48252 -0.6079,1.17514 -0.5975,2.11755 -1.6225,5.20216 -1.8898,5.6875 -0.1392,0.25268 -0.2531,0.58386 -0.2531,0.73595 0,0.15208 -0.6931,1.73128 -1.5402,3.50932 -1.6611,3.48677 -3.9703,7.30467 -6.3462,10.49266 -2.2074,2.96185 -7.8852,8.67982 -9.3688,9.43506 -4.2487,2.16282 -9.2948,-1.27364 -8.8629,-6.03583 0.1763,-1.94482 1.0676,-3.49172 2.9271,-5.08033 1.9711,-1.68398 5.2968,-5.56005 7.124,-8.30293 2.8023,-4.20648 5.2516,-9.82438 6.3682,-14.60604 1.0117,-4.33267 1.2318,-6.02681 1.2929,-9.95172 0.037,-2.38062 0.025,-2.42766 -0.9244,-3.72158 -1.9143,-2.60781 -2.7073,-6.75818 -2.6958,-14.10795 0.01,-3.55022 0.3621,-6.95128 1.04,-9.92188 0.8275,-3.62578 0.8141,-3.48684 0.2958,-3.06041 -0.5345,0.43979 -1.293,1.85815 -1.871,3.49883 -0.6139,1.74262 -0.971,5.83558 -0.7929,9.08658 0.1371,2.5006 0.092,3.04007 -0.3207,3.83119 -0.5779,1.10798 -1.945,2.07329 -3.2375,2.28598 -0.7512,0.12362 -1.1015,0.39609 -1.6947,1.3179 -0.8527,1.32522 -3.4458,4.42436 -5.2054,6.2212 -2.6055,2.66077 -6.1523,5.19416 -9.3927,6.70902 -1.1641,0.54424 -2.3234,1.09603 -2.5761,1.22619 -0.2527,0.13016 -0.6753,0.23665 -0.9392,0.23665 -0.264,0 -0.593,0.0999 -0.7312,0.22198 -1.18,1.0421 -11.973,1.37416 -15.0681,0.46358 -0.8731,-0.25687 -2.0042,-0.57444 -2.51345,-0.70571 -0.5093,-0.13126 -1.3428,-0.40067 -1.8521,-0.59869 -0.5093,-0.19802 -1.3427,-0.51787 -1.8521,-0.71079 -3.2562,0.65887 -7.87303,-5.85872 -3.9646,-3.70213 2.0752,1.18062 6.3857,3.0502 7.93015,3.43956 0.5111,0.12883 1.7031,0.4438 2.649,0.69994 2.2209,0.60141 10.2687,0.68943 12.3031,0.13457 4.2937,-1.17105 7.5339,-2.67856 10.5834,-4.92386 2.4949,-1.837 6.3265,-5.66827 8.478,-8.47719 l 1.5306,-1.9984 -0.8433,-0.87011 c -1.0418,-1.07489 -1.3568,-2.71069 -1.3576,-7.04984 0,-10.34293 4.205,-17.93307 12.1683,-21.9548 1.8541,-0.93637 1.8905,-0.95112 3.5719,-1.44535 0.8731,-0.25666 1.8851,-0.56435 2.249,-0.68377 1.6912,-0.55514 5.0129,-0.87652 6.0084,-0.58132 0.5517,0.16358 1.3077,0.35941 1.6802,0.43517 1.7871,0.36354 3.8588,2.60852 4.6094,4.9948 0.7017,2.23079 0.425,5.96758 -0.8521,11.50972 -0.3647,1.58248 -0.6438,1.19355 -1.884,-2.62542 -0.1712,-0.52705 -0.3793,-2.1344 -0.4625,-3.57188 -0.1939,-3.34908 -0.4343,-4.09253 -1.6909,-5.22775 -1.7681,-1.5974 -4.0576,-1.83003 -5.8692,-0.59637 -1.965,1.33807 -2.3621,2.69574 -2.0307,6.9419 0.4097,5.25043 2.4837,11.07698 5.1216,14.38872 0.8158,1.02425 2.8054,2.96658 3.8661,3.77437 l 0.9557,0.72782 0.1303,3.83909 c 0.099,2.92343 0.2267,3.94886 0.5344,4.29927 0.7562,0.86142 4.3418,7.06608 5.5409,9.5883 0.6573,1.38245 1.7063,3.82323 2.3312,5.42396 0.6249,1.60073 1.2342,3.14854 1.3539,3.43959 1.099,2.67103 3.1886,10.7662 3.9613,15.34583 0.4562,2.70399 1.2919,9.8324 1.297,11.06274 0.012,2.80124 -1.9425,5.27476 -4.8486,6.13779 -1.5941,0.4734 -1.3226,0.48268 -3.0182,-0.10309 z m 1.2357,-56.76258 c -0.083,-0.083 -0.7967,-0.27135 -1.586,-0.41855 -6.4703,-1.20674 -12.698,-7.07461 -14.9191,-14.05706 -1.425,-4.48011 -1.8876,-9.83912 -1.0014,-11.60294 0.6777,-1.34887 1.9817,-2.12194 3.5793,-2.12194 2.6687,0 4.1054,1.80342 4.1213,5.17297 0.011,2.2415 0.3305,3.94912 1.2133,6.47592 1.396,3.99561 3.6088,6.38635 7.2914,7.87789 1.8286,0.74061 3.2245,0.897 6.5251,0.73107 1.8682,-0.0939 3.8423,-0.18998 4.3867,-0.21347 0.6363,-0.0274 1.2507,0.15048 1.7198,0.49797 2.9584,2.1916 2.4313,6.17963 -0.9621,7.27989 -0.9783,0.31719 -10.0967,0.64984 -10.3683,0.37825 z m 33.9429,-5.98416 c -0.5821,-0.11186 -1.9513,-0.3521 -3.0427,-0.53388 -2.4743,-0.41208 -3.746,-1.08656 -4.4668,-2.36893 -0.7076,-1.2591 -0.7143,-2.69572 -0.018,-3.9343 1.0708,-1.90531 2.8545,-2.28717 6.8111,-1.45818 2.9325,0.61441 9.0972,0.60077 11.6967,-0.0259 1.0914,-0.2631 2.0975,-0.58011 2.2357,-0.70447 0.1383,-0.12436 0.4119,-0.22611 0.608,-0.22611 0.6067,0 3.3057,-1.83791 4.7146,-3.21043 0.9306,-0.90655 1.6467,-1.97071 2.3417,-3.47953 2.1051,-4.57049 2.0734,-4.52137 3.3291,-5.16665 1.9958,-1.02554 3.8544,-0.47951 5.2256,1.53517 1.076,1.58107 0.6435,4.03727 -1.3937,7.91412 -2.2763,4.3318 -6.813,8.2866 -11.3725,9.9138 -0.7276,0.25967 -1.561,0.56837 -1.8521,0.686 -0.6764,0.2734 -2.2978,0.69321 -3.906,1.01136 -1.5144,0.29962 -9.4202,0.33433 -10.9106,0.0479 z m -12.0324,-4.64964 -4.0603,-4.11284 3.6769,-3.684 3.677,-3.684 3.1126,3.1045 c 1.7119,1.70748 3.1126,3.18137 3.1126,3.27532 0,0.094 -0.6251,0.15534 -1.389,0.13643 -2.9793,-0.0738 -4.9632,1.79055 -4.998,4.6964 -0.018,1.46752 0.2666,2.27508 1.1372,3.23315 0.4172,0.45905 0.4429,0.60706 0.1481,0.85174 -0.2817,0.23376 -3.0518,0.53634 -4.4171,-3.8167 z m 9.3204,-6.76005 c -3.4354,-3.39035 -3.3505,-3.53185 0.911,-1.51772 3.7946,1.79347 3.6104,1.69524 3.7024,1.97478 0.044,0.13512 -0.1551,0.63263 -0.4434,1.10557 -0.837,1.37295 -1.4148,1.15643 -4.17,-1.56263 z m -37.6091,-15.70724 c -0.095,-0.0954 -0.6569,-0.28209 -1.2477,-0.41484 -1.3756,-0.30907 -3.615,-1.7415 -4.8367,-3.09373 -0.5245,-0.5806 -1.3496,-1.87285 -1.8335,-2.87167 -0.8273,-1.70777 -0.8794,-1.98165 -0.874,-4.59416 0.01,-2.54694 0.074,-2.92571 0.8297,-4.55163 1.9183,-4.12915 5.6555,-6.54478 10.1288,-6.54691 3.2886,-0.002 5.7181,1.01566 7.9865,3.3439 5.1445,5.28011 3.7277,13.95313 -2.8978,17.73932 -0.3151,0.18006 -1.083,0.46575 -1.7063,0.63485 -1.313,0.35616 -5.2932,0.6107 -5.549,0.35487 z m 53.7457,-0.29002 c -2.2483,-0.48824 -4.0152,-1.43183 -5.5368,-2.95692 -2.4007,-2.40617 -3.4112,-5.1915 -3.2009,-8.8231 0.1034,-1.78721 0.2771,-2.40759 1.157,-4.13264 0.8251,-1.61784 1.4019,-2.337 2.8423,-3.54372 0.9938,-0.83268 2.1844,-1.59462 2.6458,-1.6932 0.4613,-0.0986 0.9956,-0.30573 1.1872,-0.46034 0.6328,-0.51053 5.3147,-0.3757 6.7953,0.19569 2.8186,1.08771 5.1989,3.15995 6.2468,5.43818 0.2343,0.50933 0.5914,1.27167 0.7938,1.6941 0.2413,0.50386 0.3648,1.68697 0.3591,3.43958 -0.01,2.53159 -0.06,2.77732 -0.9871,4.6909 -1.6219,3.34709 -4.3296,5.41732 -8.1323,6.21765 -1.9694,0.41452 -1.9557,0.41473 -4.1702,-0.0662 z"
           id="path14858"
           inkscape:connector-curvature="0" />
      </g>
      <path
         style="display:inline;fill:#9bcb3c;fill-opacity:1;stroke:#b1d767;stroke-width:6.61323;stroke-linecap:butt;stroke-linejoin:miter;stroke-miterlimit:4;stroke-dasharray:none;stroke-opacity:1"
         d="M 3.0692783,100.4304 H 119.25"
         id="path15092"
         inkscape:connector-curvature="0" />
    </g>
  </g>
</svg>
